<svg width="900" height="600" xmlns="http://www.w3.org/2000/svg"><path fill="#da251d" d="M0 0h900v600H0"/><path fill="#ff0" d="m 788.6222,27.28 h 5.4974 l -4.746,5.597226 h -3.3138 z m -8.237,4.921833 h 3.831 c 0.035,1.702232 0.5211,3.059111 1.4116,3.74465 1.2688,0.97676 3.8361,1.160415 5.1439,-0.06309 1.1181,-1.045947 1.166,-2.068493 1.4265,-3.681557 h 3.7563 c -0.189,2.963943 -0.8438,4.429274 -2.2103,5.801653 -2.9565,2.969263 -7.8302,2.780394 -10.6785,0.732199 -1.909,-1.372696 -2.9545,-3.668818 -2.6805,-6.533852 z m -111.2275,-4.62609 h 6.1501 l -5.3096,6.103848 h -3.7071 z m -13.2807,6.449646 h 6.6968 l 4.0009,6.231283 h -4.2898 l -3.062,-3.528011 -3.2755,3.528011 h -4.0763 z m -78.4081,72.090601 -9.4989,-0.0259 -2.9413,-3.99484 c -5.1445,-1.28519 -7.7167,-5.270084 -7.7167,-11.954704 V 54.48213 c 0,-8.281015 4.0802,-12.421513 12.2405,-12.421513 8.1806,0 12.2708,4.140498 12.2708,12.421513 v 35.658396 c 0,6.53404 -2.4312,10.487904 -7.2935,11.861614 z m -4.1778,-51.633854 c 0,-2.65314 -1.2362,-3.989762 -3.7084,-4.009867 h -0.06 c -2.4521,0 -3.6782,1.336628 -3.6782,4.009867 v 35.65839 c 0,2.67324 1.2361,4.00985 3.7084,4.00985 2.4923,0 3.7385,-1.33661 3.7385,-4.00985 z m 36.8926,36.17913 q 0,12.421484 -12.2707,12.451634 -12.2406,0 -12.2406,-12.451634 V 42.99525 h 8.5322 v 47.666016 q 0,4.00984 3.7084,4.00984 3.7385,0 3.7385,-4.00984 V 42.99525 h 8.5322 z m 12.8939,-47.666016 5.8188,23.064206 5.8188,-23.064206 h 9.0448 l -10.3412,33.556146 -0.2412,0.72358 v 24.873144 h -8.5323 V 77.274976 L 624.374,76.551396 614.0328,42.99525 Z m 24.5314,0 h 22.1296 v 8.411652 h -13.5973 v 14.240525 h 11.6979 v 8.441799 h -11.6979 v 19.64727 h 13.5973 v 8.411624 H 647.609 Z m 50.49,0 v 8.411652 h -7.9895 v 50.741218 h -8.5323 V 51.406902 h -7.9895 V 42.99525 Z m 42.812,0 v 8.411652 h -7.9896 v 50.741218 h -8.5322 V 51.406902 h -7.9896 V 42.99525 Z m 3.9754,0 h 8.5323 v 21.961442 h 7.4468 V 42.99525 h 8.5323 v 59.15287 h -8.5323 V 73.398486 h -7.4468 v 28.749634 h -8.5323 z m 54.988,38.168976 2.7738,20.983894 h -8.6227 l -1.6582,-12.542084 h -8.7132 l -1.6883,12.542084 h -8.5926 l 2.7738,-20.893434 6.0298,-38.259436 h 11.6979 z m -8.6227,0 -3.2561,-24.601803 -3.2561,24.601803 z M 806.6236,42.99525 h 8.5322 l 8.08,34.309876 V 42.99525 h 7.8991 v 59.15287 h -8.5322 l -7.7785,-33.224484 v 33.224484 h -8.2006 z m 52.9981,47.666016 c 0,8.28099 -4.0902,12.431534 -12.2707,12.451634 -8.1604,0 -12.2406,-4.150544 -12.2406,-12.451634 v -36.17913 c 0,-8.281015 4.0802,-12.421513 12.2406,-12.421513 8.1805,0 12.2707,4.140498 12.2707,12.421513 v 0.791034 h -8.5322 v -0.791034 c 0,-2.65314 -1.2361,-3.989762 -3.7084,-4.009867 h -0.06 c -2.4521,0 -3.6782,1.336628 -3.6782,4.009867 v 36.17913 c 0,2.67323 1.2362,4.00984 3.7084,4.00984 2.4923,0 3.7385,-1.33661 3.7385,-4.00984 v -13.86868 h -3.7083 v -8.44179 h 12.2406 zM450,120 344.1,445.5 621.3,244.5 278.7,244.5 555.9,445.5"/></svg>