<svg width="32" height="33" viewBox="0 0 32 33" fill="none" xmlns="http://www.w3.org/2000/svg">
<path d="M25.3333 29.8337H21.3333C20.9555 29.8337 20.639 29.7057 20.3839 29.4497C20.1288 29.1937 20.0008 28.8772 19.9999 28.5003C19.999 28.1234 20.127 27.807 20.3839 27.551C20.6408 27.295 20.9573 27.167 21.3333 27.167H25.3333V13.8337H6.66659V17.8337C6.66659 18.2114 6.53859 18.5283 6.28259 18.7843C6.02659 19.0403 5.71014 19.1679 5.33326 19.167C4.95637 19.1661 4.63992 19.0381 4.38392 18.783C4.12792 18.5279 3.99992 18.2114 3.99992 17.8337V8.50033C3.99992 7.767 4.26126 7.13944 4.78392 6.61766C5.30659 6.09589 5.93414 5.83455 6.66659 5.83366H7.99992V4.50033C7.99992 4.12255 8.12792 3.80611 8.38392 3.551C8.63992 3.29589 8.95637 3.16789 9.33326 3.167C9.71014 3.16611 10.027 3.29411 10.2839 3.551C10.5408 3.80789 10.6684 4.12433 10.6666 4.50033V5.83366H21.3333V4.50033C21.3333 4.12255 21.4613 3.80611 21.7173 3.551C21.9733 3.29589 22.2897 3.16789 22.6666 3.167C23.0435 3.16611 23.3604 3.29411 23.6173 3.551C23.8741 3.80789 24.0017 4.12433 23.9999 4.50033V5.83366H25.3333C26.0666 5.83366 26.6946 6.095 27.2173 6.61766C27.7399 7.14033 28.0008 7.76789 27.9999 8.50033V27.167C27.9999 27.9003 27.739 28.5283 27.2173 29.051C26.6955 29.5737 26.0675 29.8346 25.3333 29.8337ZM12.2333 27.167H2.66659C2.28881 27.167 1.97237 27.039 1.71726 26.783C1.46215 26.527 1.33415 26.2106 1.33326 25.8337C1.33237 25.4568 1.46037 25.1403 1.71726 24.8843C1.97415 24.6283 2.29059 24.5003 2.66659 24.5003H12.2333L9.73326 21.967C9.48881 21.7226 9.36126 21.4172 9.35059 21.051C9.33992 20.6848 9.46748 20.3679 9.73326 20.1003C9.9777 19.8559 10.2888 19.7337 10.6666 19.7337C11.0444 19.7337 11.3555 19.8559 11.5999 20.1003L16.3999 24.9003C16.6666 25.167 16.7999 25.4781 16.7999 25.8337C16.7999 26.1892 16.6666 26.5003 16.3999 26.767L11.5999 31.567C11.3555 31.8114 11.0501 31.9394 10.6839 31.951C10.3177 31.9626 10.0008 31.8346 9.73326 31.567C9.48881 31.3226 9.36659 31.0114 9.36659 30.6337C9.36659 30.2559 9.48881 29.9448 9.73326 29.7003L12.2333 27.167Z" fill="#4C8CD1"/>
</svg>
