<svg width="41" height="35" viewBox="0 0 41 35" fill="none" xmlns="http://www.w3.org/2000/svg">
<path fill-rule="evenodd" clip-rule="evenodd" d="M37.9385 29.3397H3.09626C1.40114 29.3397 0.034668 27.9733 0.034668 26.2781V3.95906C0.034668 2.26394 1.40114 0.897461 3.09626 0.897461H37.9385C39.6336 0.897461 41.0001 2.26394 41.0001 3.95906V26.2781C41.0001 27.9733 39.599 29.3397 37.9385 29.3397ZM3.09626 2.06214C2.02961 2.06214 1.19934 2.92699 1.19934 3.95906V26.2781C1.19934 27.3102 2.0642 28.1751 3.09626 28.1751H37.9385C39.0051 28.1751 39.8354 27.3448 39.8354 26.2781V3.95906C39.8354 2.8924 38.9705 2.06214 37.9385 2.06214H3.09626Z" fill="white"/>
<path fill-rule="evenodd" clip-rule="evenodd" d="M26.3782 34.1026C26.1475 34.1026 25.9111 33.97 25.8477 33.7394L23.945 28.9769C23.8124 28.6771 23.9796 28.3427 24.2794 28.2101C24.5793 28.0774 24.9137 28.2446 25.0463 28.5445L26.9432 33.3069C27.0758 33.6068 26.9144 33.9354 26.6146 34.068C26.5454 34.068 26.4474 34.1026 26.3782 34.1026ZM14.6565 34.1026C14.5873 34.1026 14.5239 34.1026 14.4547 34.068C14.1549 33.9354 14.0222 33.6068 14.1203 33.3069L16.0229 28.5445C16.1556 28.2446 16.4842 28.1063 16.784 28.2101C17.0838 28.3427 17.2222 28.6771 17.1184 28.9769L15.2215 33.7394C15.0889 33.9354 14.8525 34.1026 14.6565 34.1026Z" fill="white"/>
<path fill-rule="evenodd" clip-rule="evenodd" d="M40.4004 24.7793H0.599634C0.265223 24.7793 0 24.5141 0 24.1797C0 23.8453 0.265223 23.5801 0.599634 23.5801H40.4004C40.7348 23.5801 41 23.8453 41 24.1797C41 24.5141 40.7348 24.7793 40.4004 24.7793Z" fill="white"/>
<path fill-rule="evenodd" clip-rule="evenodd" d="M30.6735 34.1026H10.3609C10.0265 34.1026 9.76123 33.8374 9.76123 33.503C9.76123 33.1685 10.0265 32.9033 10.3609 32.9033H30.6735C31.0079 32.9033 31.2731 33.1685 31.2731 33.503C31.2731 33.8374 31.0079 34.1026 30.6735 34.1026Z" fill="white"/>
<path fill-rule="evenodd" clip-rule="evenodd" d="M10.361 22.1149C7.16099 22.1149 4.16281 20.0796 3.13075 16.8508C1.83347 12.884 3.99561 8.58856 7.99125 7.29128C8.12963 7.25668 8.29107 7.25668 8.42944 7.32587C8.56206 7.3893 8.66007 7.52191 8.7235 7.66028L10.8222 14.1179L16.6514 17.5831C16.9223 17.7503 17.0204 18.1135 16.8532 18.3845C15.9191 19.9816 14.42 21.1809 12.6557 21.7459C11.8889 21.9823 11.122 22.1149 10.361 22.1149ZM7.79522 8.62316C4.79704 9.92044 3.19994 13.3222 4.232 16.5164C5.32749 19.849 8.92529 21.7113 12.2925 20.6158C13.6244 20.1834 14.7198 19.382 15.5213 18.2807L10.0265 15.0173C9.89394 14.9539 9.82475 14.8213 9.76132 14.6829L7.79522 8.62316Z" fill="white"/>
<path fill-rule="evenodd" clip-rule="evenodd" d="M19.0155 17.9173C18.9175 17.9173 18.8195 17.8827 18.7214 17.8481L12.7251 14.2849C12.5579 14.1869 12.4541 14.0197 12.4541 13.8525C12.4253 13.6853 12.4887 13.4835 12.6213 13.3509L17.6548 8.49035C17.8854 8.25973 18.2544 8.25973 18.4851 8.49035C19.3153 9.35521 19.9149 10.3239 20.2494 11.4193C20.9182 13.4835 20.6818 15.7494 19.5517 17.6175C19.4191 17.8135 19.2173 17.9173 19.0155 17.9173ZM13.9532 13.6507L18.7849 16.5162C19.4825 15.0517 19.6151 13.3509 19.1193 11.7883C18.8829 11.0561 18.5196 10.3527 18.018 9.75305L13.9532 13.6507Z" fill="white"/>
<path fill-rule="evenodd" clip-rule="evenodd" d="M11.6931 13.3857C11.6585 13.3857 11.5893 13.3857 11.5605 13.3511C11.3587 13.3223 11.1915 13.1551 11.1569 12.9533L8.99473 6.32273C8.89095 6.02292 9.05815 5.69427 9.35797 5.59049C12.1255 4.69104 15.1237 5.42905 17.1532 7.522C17.2512 7.62578 17.3204 7.79299 17.3204 7.9256C17.3204 8.09281 17.2512 8.22542 17.1532 8.32344L12.0909 13.2185C11.9929 13.3223 11.8257 13.3857 11.6931 13.3857ZM10.292 6.55913L11.9583 11.7194L15.8848 7.9256C14.3222 6.59372 12.2581 6.0921 10.292 6.55913Z" fill="white"/>
<path fill-rule="evenodd" clip-rule="evenodd" d="M38.336 21.7813H22.0479C21.7135 21.7813 21.4482 21.5161 21.4482 21.1817C21.4482 20.8473 21.7135 20.582 22.0479 20.582H38.336C38.6704 20.582 38.9357 20.8473 38.9357 21.1817C38.9357 21.5161 38.6358 21.7813 38.336 21.7813Z" fill="white"/>
<path fill-rule="evenodd" clip-rule="evenodd" d="M26.7474 21.7809C26.413 21.7809 26.1477 21.5157 26.1477 21.1813V16.2516H23.8472V21.1813C23.8472 21.5157 23.582 21.7809 23.2476 21.7809C22.9132 21.7809 22.6479 21.5157 22.6479 21.1813V15.6865C22.6479 15.3521 22.9132 15.0869 23.2476 15.0869H26.7128C27.0472 15.0869 27.3124 15.3521 27.3124 15.6865V21.2159C27.347 21.5157 27.076 21.7809 26.7474 21.7809Z" fill="white"/>
<path fill-rule="evenodd" clip-rule="evenodd" d="M31.9422 21.7808C31.6078 21.7808 31.3426 21.5155 31.3426 21.1811V14.6198H29.042V21.1811C29.042 21.5155 28.7768 21.7808 28.4424 21.7808C28.1138 21.7808 27.8428 21.5155 27.8428 21.1811V14.0547C27.8428 13.7203 28.1138 13.4551 28.4424 13.4551H31.9076C32.242 13.4551 32.5072 13.7203 32.5072 14.0547V21.2157C32.5072 21.5155 32.242 21.7808 31.9422 21.7808Z" fill="white"/>
<path fill-rule="evenodd" clip-rule="evenodd" d="M37.0679 21.7807C36.7392 21.7807 36.4682 21.5155 36.4682 21.181V11.7887H34.2081V21.181C34.2081 21.5155 33.9371 21.7807 33.6084 21.7807C33.274 21.7807 33.0088 21.5155 33.0088 21.181V11.2237C33.0088 10.8892 33.274 10.624 33.6084 10.624H37.039C37.3677 10.624 37.6387 10.8892 37.6387 11.2237V21.181C37.6675 21.5155 37.4023 21.7807 37.0679 21.7807Z" fill="white"/>
<path fill-rule="evenodd" clip-rule="evenodd" d="M37.0388 5.52739H23.3452C23.0166 5.52739 22.7456 5.26217 22.7456 4.92776C22.7456 4.59335 23.0166 4.32812 23.3452 4.32812H37.0388C37.3675 4.32812 37.6384 4.59335 37.6384 4.92776C37.6384 5.26217 37.3675 5.52739 37.0388 5.52739Z" fill="white"/>
<path fill-rule="evenodd" clip-rule="evenodd" d="M37.0388 8.12212H23.3452C23.0166 8.12212 22.7456 7.8569 22.7456 7.52249C22.7456 7.19384 23.0166 6.92285 23.3452 6.92285H37.0388C37.3675 6.92285 37.6384 7.19384 37.6384 7.52249C37.6384 7.8569 37.3675 8.12212 37.0388 8.12212Z" fill="white"/>
</svg>
