<svg width="42" height="42" viewBox="0 0 42 42" fill="none" xmlns="http://www.w3.org/2000/svg">
<path d="M21 41.25C32.1838 41.25 41.25 32.1838 41.25 21C41.25 9.81623 32.1838 0.75 21 0.75C9.81623 0.75 0.75 9.81623 0.75 21C0.75 32.1838 9.81623 41.25 21 41.25Z" stroke="white" stroke-width="1.5" stroke-linecap="round" stroke-linejoin="round"/>
<path d="M34.5 7.5L26.5688 15.4312M26.5688 15.4312C29.6018 18.4665 29.6018 23.5358 26.5688 26.5688M26.5688 15.4312C23.5358 12.3982 18.4665 12.3982 15.4312 15.4312M7.5 34.5L15.4312 26.5688M15.4312 26.5688C12.3982 23.5358 12.3982 18.4665 15.4312 15.4312M15.4312 26.5688C18.4642 29.6018 23.5335 29.6018 26.5688 26.5688M7.5 7.5L15.4312 15.4312M34.5 34.5L26.5688 26.5688" stroke="white" stroke-width="1.5" stroke-linecap="round" stroke-linejoin="round"/>
</svg>
