<svg width="42" height="43" viewBox="0 0 42 43" fill="none" xmlns="http://www.w3.org/2000/svg">
<path d="M41.18 33.4021C34.3316 33.4021 27.6101 36.2637 22.7387 41.2531C22.4189 41.5804 22.4205 42.1093 22.7415 42.4342C22.8176 42.5115 22.9078 42.5727 23.007 42.6144C23.1063 42.6562 23.2126 42.6775 23.32 42.6774C23.5305 42.6774 23.7409 42.5955 23.9014 42.4314C28.4672 37.7548 34.7649 35.0727 41.18 35.0727C41.6329 35.0727 42 34.6987 42 34.2374C42 33.7763 41.6329 33.4021 41.18 33.4021ZM24.0801 32.6284C23.8264 32.246 23.3168 32.1456 22.9417 32.4039C19.4352 34.8166 16.4738 37.8354 14.1393 41.3765C13.8869 41.7595 13.9868 42.2786 14.363 42.5358C14.4524 42.597 14.5527 42.6396 14.6583 42.6613C14.7639 42.683 14.8726 42.6832 14.9783 42.6621C15.084 42.6409 15.1846 42.5988 15.2743 42.538C15.364 42.4773 15.441 42.3991 15.5011 42.308C17.717 38.9462 20.5291 36.0797 23.8597 33.7881C24.2348 33.53 24.3335 33.0108 24.0801 32.6284ZM41.18 26.6777C37.5139 26.6777 33.8854 27.3157 30.3952 28.5739C29.9682 28.7276 29.7446 29.2049 29.8958 29.6399C30.0147 29.9828 30.3312 30.1969 30.6687 30.1969C30.7594 30.1969 30.8516 30.1812 30.9423 30.1486C34.2563 28.954 37.7007 28.3484 41.18 28.3484C41.6329 28.3484 42 27.9744 42 27.5131C42 27.0517 41.6329 26.6777 41.18 26.6777Z" fill="white"/>
<path d="M11.7532 37.0486C17.15 30.0122 24.9622 25.1265 33.5825 23.2956L33.587 23.2946C36.0643 22.7688 38.6076 22.4948 41.1797 22.4948C41.6325 22.4948 42 22.1273 42 21.6745C42 21.2213 41.6325 20.8541 41.1797 20.8541C38.8521 20.8548 36.5293 21.0659 34.2397 21.4851V19.7143C37.2047 17.2044 38.8322 13.9155 38.8322 10.4131C38.8322 6.79186 37.0926 3.3988 33.9334 0.858703C33.7876 0.741579 33.6062 0.677734 33.4192 0.677734C33.2323 0.677734 33.0509 0.741579 32.9051 0.858703C29.7462 3.3988 28.0063 6.79186 28.0063 10.4131C28.0063 13.9155 29.6341 17.2044 32.5988 19.7143V21.8206C31.0395 22.1759 29.5036 22.6272 27.9999 23.1719V18.3689C27.9999 18.1433 27.9088 17.9391 27.7615 17.7908V17.7904L23.1678 13.1695C23.0915 13.0928 23.0008 13.032 22.9009 12.9905C22.8011 12.9489 22.694 12.9276 22.5858 12.9276H13.207C13.0989 12.9276 12.9919 12.949 12.8921 12.9905C12.7923 13.032 12.7016 13.0929 12.6254 13.1695L8.03168 17.7904V17.7908C7.87859 17.9443 7.79272 18.1524 7.79297 18.3692V21.5017C7.22091 21.3967 6.64655 21.3047 6.07031 21.2258V18.3016C8.31239 16.3729 9.54253 13.8575 9.54253 11.1777C9.54253 8.37802 8.2005 5.75753 5.76401 3.79813C5.6183 3.68098 5.43696 3.61712 5.25 3.61712C5.06304 3.61712 4.8817 3.68098 4.73599 3.79813C2.29942 5.75712 0.957469 8.37793 0.957469 11.1777C0.957469 13.8571 2.18761 16.3725 4.42969 18.3013V21.0371C3.22985 20.9245 2.02542 20.868 0.820312 20.8676C0.367254 20.8676 0 21.2349 0 21.6879C0 22.141 0.367254 22.5082 0.820312 22.5082C7.37953 22.5082 13.7954 24.2437 19.4513 27.5362C18.0975 28.4564 16.8033 29.4616 15.5767 30.5456C10.9941 28.211 5.90239 26.9789 0.820312 26.9789C0.3675 26.9789 0 27.3462 0 27.7992C0 28.2523 0.3675 28.6196 0.820312 28.6196C5.4445 28.6196 10.0779 29.695 14.2875 31.7371C13.0395 32.9447 11.8741 34.2347 10.799 35.5986C7.60807 34.2605 4.25439 33.5824 0.820312 33.5824C0.3675 33.5824 0 33.9497 0 34.4028C0 34.8558 0.3675 35.2231 0.820312 35.2231C3.89648 35.2231 6.90408 35.8063 9.77714 36.9547C9.20915 37.7431 8.67138 38.5528 8.16498 39.3821L6.91499 41.4299C6.67882 41.8163 6.80121 42.3213 7.18766 42.5572C7.31606 42.636 7.4638 42.6777 7.61447 42.6777C7.7552 42.6778 7.89359 42.6416 8.01632 42.5728C8.13906 42.5039 8.242 42.4046 8.31526 42.2845L9.56525 40.2366C10.2144 39.1738 10.9176 38.145 11.6721 37.1543C11.7017 37.1217 11.7292 37.0867 11.7532 37.0485V37.0486ZM29.6472 10.413C29.6472 7.49749 30.9812 4.73566 33.4194 2.57143C35.8576 4.73566 37.1916 7.49741 37.1916 10.4131C37.1916 12.9823 36.1547 15.4327 34.2397 17.4594V11.1777C34.2397 10.7246 33.8725 10.3573 33.4194 10.3573C32.9663 10.3573 32.5991 10.7246 32.5991 11.1777V17.4594C30.6839 15.4327 29.6472 12.9823 29.6472 10.413ZM2.59809 11.1777C2.59809 9.08521 3.53473 7.09792 5.25 5.51882C6.96527 7.09759 7.90191 9.08521 7.90191 11.1777C7.90191 12.907 7.26141 14.565 6.07031 15.98V10.5214C6.07031 10.0684 5.70306 9.7011 5.25 9.7011C4.79719 9.7011 4.42969 10.0684 4.42969 10.5214V15.98C3.23859 14.565 2.59809 12.907 2.59809 11.1777ZM25.2076 17.5485H18.142L15.1793 14.5682H22.2449L25.2076 17.5485ZM13.207 14.9114L15.8288 17.5485H10.5856L13.207 14.9114ZM9.43359 19.1892H16.9805V24.4059C16.6004 24.2308 16.2175 24.0619 15.832 23.8992V21.1441C15.832 20.6913 15.4648 20.3238 15.0117 20.3238H11.4023C10.9495 20.3238 10.582 20.6913 10.582 21.1441V22.1195C10.2007 22.0199 9.81781 21.9261 9.43359 21.8382V19.1892ZM14.1914 23.2519C13.5413 23.0122 12.8848 22.7901 12.2227 22.5858V21.9644H14.1914V23.2519ZM18.6211 25.2085V19.1892H26.3596V23.8086C24.9516 24.3913 23.5794 25.0572 22.2503 25.8026C21.8251 26.0416 21.4045 26.2887 20.9888 26.5438C20.2153 26.0712 19.4256 25.6259 18.6211 25.2085Z" fill="white"/>
<path d="M33.1978 9.33152C33.4088 9.33152 33.6158 9.24305 33.765 9.08891C33.9148 8.9336 33.9993 8.72368 34 8.50463C34 8.28691 33.9145 8.07382 33.765 7.92001C33.6143 7.76541 33.4105 7.67835 33.1978 7.67773C32.987 7.67773 32.7799 7.76588 32.631 7.92001C32.4809 8.0753 32.3963 8.2854 32.3957 8.50463C32.3957 8.72202 32.4815 8.93519 32.631 9.08891C32.7816 9.24353 32.9853 9.3307 33.1978 9.33152ZM26.235 31.2666C26.0853 31.422 26.0009 31.6318 26 31.8508C26 32.0691 26.0858 32.2817 26.235 32.4355C26.3858 32.59 26.5896 32.6771 26.8022 32.6777C27.0134 32.6777 27.2201 32.5896 27.3693 32.4355C27.5185 32.2817 27.6043 32.0691 27.6043 31.8508C27.6036 31.6318 27.5191 31.4219 27.3693 31.2666C27.2187 31.1118 27.0148 31.0246 26.8022 31.0239C26.5913 31.0239 26.3845 31.1124 26.235 31.2666Z" fill="white"/>
</svg>
