<svg width="42" height="43" viewBox="0 0 42 43" fill="none" xmlns="http://www.w3.org/2000/svg">
<path d="M6.07716 33.9396V25.9056H1V41.6777H6.07716V35.1011M6.07716 39.6471H22.5026C23.3977 39.6471 24.1233 38.9321 24.1233 38.0501C24.1233 37.1682 23.3977 36.4532 22.5026 36.4532M22.5026 36.4532H23.5786C24.4737 36.4532 25.1992 35.7382 25.1992 34.8563C25.1992 33.9743 24.4737 33.2593 23.5786 33.2593M22.5026 36.4532L20.2372 36.4533M23.5786 33.2593H24.6635C25.5586 33.2593 26.2842 32.5444 26.2842 31.6624C26.2842 30.7804 25.5586 30.0655 24.6635 30.0655M23.5786 33.2593L20.2372 33.2594M24.6635 30.0655H25.3793C26.2744 30.0655 27 29.3505 27 28.4685C27 27.5866 26.2744 26.8716 25.3793 26.8716H19.0426L19.0408 23.6866L12.6786 23.6777L9.75398 27.7235H6.07716M24.6635 30.0655L20.2372 30.0655M24.1548 26.8717H17.0003" stroke="white" strokeWidth="1.5" stroke-miterlimit="10"/>
<path d="M26.944 5.50975C25.48 4.36163 23.6396 3.67773 21.6406 3.67773C16.8686 3.67773 13 7.57514 13 12.3828C13 16.3674 15.6574 19.7266 19.2841 20.76V25.6777H23.9448V20.7743C26.9009 19.9522 29.2218 17.5877 30 14.5941" stroke="white" strokeWidth="1.5" stroke-miterlimit="10"/>
<path d="M16.4955 16.0692C16.1767 15.3365 16 14.5278 16 13.6777C16 10.364 18.6863 7.67773 22 7.67773C23.9629 7.67773 25.7056 8.62031 26.8002 10.0775M27.993 13.3866C27.9977 13.4836 28 13.5807 28 13.6777C28 16.9915 25.3137 19.6777 22 19.6777C19.9629 19.6777 18.163 18.6626 17.0785 17.1105" stroke="white" strokeWidth="1.5" stroke-miterlimit="10"/>
<path d="M22.1434 10.9634C22.1434 10.9634 21.6266 10.5102 20.83 10.7384C20.0985 10.9479 19.9168 11.8996 20.4139 12.2703C20.6993 12.4831 21.1288 12.6581 21.7076 12.8527C23.003 13.288 22.5241 15.0251 21.2064 15.0334C20.6922 15.0367 20.4518 15.0056 20 14.7247M21.2064 15.0334V16.6777M21.2064 10.6741V9.16059M40.2489 5.63027C40.73 6.56451 41 7.61479 41 8.72506C41 12.6172 37.6817 15.7724 33.5882 15.7724C29.4948 15.7724 26.1765 12.6172 26.1765 8.72506C26.1765 4.8329 29.4948 1.67773 33.5882 1.67773C36.0617 1.67773 38.2522 2.82982 39.5986 4.60034M33.5882 5.5825V12.371" stroke="white" strokeWidth="1.5" stroke-miterlimit="10"/>
<path d="M37 8.72963L33.9679 5.67773L30.9358 8.72963M3 35.6777H4.21284" stroke="white" strokeWidth="1.5" stroke-miterlimit="10"/>
</svg>
