<svg width="42" height="43" viewBox="0 0 42 43" fill="none" xmlns="http://www.w3.org/2000/svg">
<g clipPath="url(#clip0_1568_13126)">
<path d="M31.0001 20.6777C29.8974 20.6777 29 21.6873 29 22.9278C29 23.3417 29.2987 23.6777 29.6667 23.6777C30.0347 23.6777 30.3333 23.3417 30.3333 22.9278C30.3333 22.5145 30.6326 22.1778 31 22.1778C31.3674 22.1778 31.6667 22.5145 31.6667 22.9278C31.6667 23.3417 31.9654 23.6777 32.3333 23.6777C32.7013 23.6777 33 23.3417 33 22.9278C33.0002 21.6873 32.1028 20.6777 31.0001 20.6777Z" fill="white"/>
<path d="M10 23.3444V26.0111C10 26.3791 10.224 26.6777 10.5 26.6777C10.776 26.6777 11 26.3791 11 26.0111V23.3444C11 22.9764 10.776 22.6777 10.5 22.6777C10.224 22.6777 10 22.9764 10 23.3444Z" fill="white"/>
<path d="M12.572 27.6703C12.6046 27.6755 12.636 27.6776 12.6673 27.6776C12.9939 27.6776 13.2786 27.4158 13.3267 27.0536L13.9933 21.9627C14.0126 21.8158 13.9899 21.6667 13.9299 21.5344C13.8426 21.3446 12.992 19.6777 10 19.6777C7.00802 19.6777 6.15741 21.3446 6.07007 21.5345C6.01007 21.6668 5.98742 21.8159 6.00671 21.9628L6.67334 27.0536C6.72537 27.4507 7.06537 27.7271 7.42802 27.6703C7.79199 27.6136 8.04535 27.2449 7.99332 26.8471L7.36466 22.0457C7.612 21.7482 8.32667 21.1322 9.99992 21.1322C11.6825 21.1322 12.3959 21.7548 12.6359 22.0428L12.0066 26.8471C11.9547 27.2449 12.2079 27.6137 12.572 27.6703Z" fill="white"/>
<path d="M6.25002 39.8952H2.49996V19.3734C2.49996 18.9894 2.16395 18.6777 1.74998 18.6777C1.33601 18.6777 1 18.9894 1 19.3734V40.5909C1 40.9748 1.33601 41.2865 1.74998 41.2865H5.50004V41.9821C5.50004 42.3661 5.83605 42.6777 6.25002 42.6777C6.66399 42.6777 7 42.3661 7 41.9821V40.5909C7 40.2069 6.66399 39.8952 6.25002 39.8952Z" fill="white"/>
<path d="M32.3057 39.6777H8.69442C8.31112 39.6777 8 39.9017 8 40.1777C8 40.4537 8.31112 40.6777 8.69442 40.6777H32.3056C32.6889 40.6777 33 40.4537 33 40.1777C33 39.9017 32.689 39.6777 32.3057 39.6777Z" fill="white"/>
<path d="M39.3077 28.6777H4.69228C4.31016 28.6777 4 28.9913 4 29.3777C4 29.7641 4.31016 30.0777 4.69228 30.0777H38.6154V39.8778H35.1539C34.7717 39.8778 34.4616 40.1914 34.4616 40.5777V41.9778C34.4616 42.3641 34.7717 42.6777 35.1539 42.6777C35.536 42.6777 35.8462 42.3641 35.8462 41.9778V41.2778H39.3077C39.6898 41.2778 40 40.9642 40 40.5778V29.3778C40 28.9913 39.6898 28.6777 39.3077 28.6777Z" fill="white"/>
<path d="M27 26.9278C27 27.3417 27.2987 27.6777 27.6667 27.6777C28.0346 27.6777 28.3333 27.3417 28.3333 26.9278C28.3333 26.5145 28.6326 26.1778 29 26.1778C29.3674 26.1778 29.6667 26.5145 29.6667 26.9278C29.6667 27.3417 29.9654 27.6777 30.3333 27.6777C30.7013 27.6777 31 27.3417 31 26.9278C31 25.6873 30.1026 24.6777 28.9999 24.6777C27.8972 24.6777 27 25.6873 27 26.9278Z" fill="white"/>
<path d="M39.5 18.6777C39.224 18.6777 39 19.0003 39 19.3977V26.9578C39 27.3552 39.224 27.6777 39.5 27.6777C39.776 27.6777 40 27.3552 40 26.9578V19.3977C40 19.0003 39.776 18.6777 39.5 18.6777Z" fill="white"/>
<path d="M38.4998 0.677734H3.50001C1.57007 0.677734 0 2.2665 0 4.21943V16.8979C0 17.1111 0.0944996 17.3123 0.256921 17.4468C0.419998 17.5807 0.633525 17.6352 0.839341 17.592C1.95726 17.3625 2.89947 16.6875 3.49936 15.773C4.25183 16.9205 5.54053 17.6777 7.00003 17.6777C8.45887 17.6777 9.74683 16.9211 10.5 15.7744C11.2532 16.9211 12.5412 17.6777 14.0001 17.6777C15.4589 17.6777 16.7469 16.9211 17.5001 15.7744C18.2531 16.9212 19.5412 17.6777 20.9999 17.6777C22.4588 17.6777 23.7467 16.9212 24.4999 15.7744C25.2531 16.9212 26.5411 17.6777 27.9999 17.6777C29.4587 17.6777 30.7468 16.9212 31.5 15.7744C32.2532 16.9212 33.5411 17.6777 35 17.6777C36.4595 17.6777 37.7482 16.9205 38.5006 15.773C39.1005 16.6875 40.0427 17.3626 41.1607 17.5921C41.3671 17.6367 41.58 17.5814 41.7431 17.4469C41.9055 17.3123 42 17.1111 42 16.898V4.21943C41.9998 2.2665 40.4298 0.677734 38.4998 0.677734ZM40.5998 15.8814C39.7549 15.3856 39.1998 14.4584 39.1998 13.4277V4.21943C39.1998 3.82846 38.8862 3.51112 38.4998 3.51112C38.1135 3.51112 37.7999 3.82846 37.7999 4.21943V13.4277C37.7999 14.9904 36.544 16.261 34.9999 16.261C33.4557 16.261 32.1999 14.9903 32.1999 13.4277V4.21943C32.1999 3.82846 31.8863 3.51112 31.5 3.51112C31.1136 3.51112 30.8 3.82846 30.8 4.21943V13.4277C30.8 14.9904 29.5442 16.261 28 16.261C26.4558 16.261 25.2001 14.9903 25.2001 13.4277V4.21943C25.2001 3.82846 24.8865 3.51112 24.5001 3.51112C24.1137 3.51112 23.8001 3.82846 23.8001 4.21943V13.4277C23.8001 14.9904 22.5443 16.261 21.0002 16.261C19.4559 16.261 18.2002 14.9903 18.2002 13.4277V4.21943C18.2002 3.82846 17.8866 3.51112 17.5002 3.51112C17.1139 3.51112 16.8003 3.82846 16.8003 4.21943V13.4277C16.8003 14.9904 15.5445 16.261 14.0003 16.261C12.4562 16.261 11.2003 14.9903 11.2003 13.4277V4.21943C11.2003 3.82846 10.8867 3.51112 10.5004 3.51112C10.114 3.51112 9.8004 3.82846 9.8004 4.21943V13.4277C9.8004 14.9904 8.54459 16.261 7.00044 16.261C5.4562 16.261 4.20048 14.9903 4.20048 13.4277V4.21943C4.20048 3.82846 3.88687 3.51112 3.50051 3.51112C3.11414 3.51112 2.80054 3.82846 2.80054 4.21943V13.4277C2.80054 14.4584 2.24543 15.3856 1.40051 15.8814V4.21943C1.40051 3.04786 2.34272 2.09443 3.50051 2.09443H38.5004C39.6582 2.09443 40.6004 3.04786 40.6004 4.21943V15.8814H40.5998Z" fill="white"/>
<path d="M21 26.9278C21 27.3417 21.2987 27.6777 21.6667 27.6777C22.0346 27.6777 22.3333 27.3417 22.3333 26.9278C22.3333 26.5145 22.6326 26.1778 23 26.1778C23.3674 26.1778 23.6667 26.5145 23.6667 26.9278C23.6667 27.3417 23.9654 27.6777 24.3333 27.6777C24.7013 27.6777 25 27.3417 25 26.9278C25 25.6873 24.1026 24.6777 22.9999 24.6777C21.8972 24.6777 21 25.6873 21 26.9278Z" fill="white"/>
<path d="M26.0001 20.6777C24.8974 20.6777 24 21.6873 24 22.9278C24 23.3417 24.2987 23.6777 24.6667 23.6777C25.0346 23.6777 25.3333 23.3417 25.3333 22.9278C25.3333 22.5145 25.6326 22.1778 26 22.1778C26.3674 22.1778 26.6667 22.5145 26.6667 22.9278C26.6667 23.3417 26.9654 23.6777 27.3333 23.6777C27.7013 23.6777 28 23.3417 28 22.9278C28.0002 21.6873 27.1028 20.6777 26.0001 20.6777Z" fill="white"/>
<path d="M32 26.9278C32 27.3417 32.2987 27.6777 32.6667 27.6777C33.0347 27.6777 33.3333 27.3417 33.3333 26.9278C33.3333 26.5145 33.6326 26.1778 34 26.1778C34.3674 26.1778 34.6667 26.5145 34.6667 26.9278C34.6667 27.3417 34.9654 27.6777 35.3333 27.6777C35.7013 27.6777 36 27.3417 36 26.9278C36 25.6873 35.1026 24.6777 33.9999 24.6777C32.8972 24.6777 32 25.6873 32 26.9278Z" fill="white"/>
</g>
<defs>
<clipPath id="clip0_1568_13126">
<rect width="42" height="42" fill="white" transform="translate(0 0.677734)"/>
</clipPath>
</defs>
</svg>
