<svg width="38" height="38" viewBox="0 0 38 38" fill="none" xmlns="http://www.w3.org/2000/svg">
<g clip-path="url(#clip0_1340_3957)">
<path d="M23.4026 10.6396H6.68262V12.1596H23.4026V10.6396Z" fill="white"/>
<path d="M23.4026 15.2002H6.68262V16.7202H23.4026V15.2002Z" fill="white"/>
<path d="M19.6026 19.7598H6.68262V21.2798H19.6026V19.7598Z" fill="white"/>
<path d="M15.8026 24.3193H6.68262V25.8393H15.8026V24.3193Z" fill="white"/>
<path d="M15.8026 28.8799H6.68262V30.3999H15.8026V28.8799Z" fill="white"/>
<path d="M29.4825 14.1251V6.52513L23.7172 0.759766H0.602539V37.2398H29.4825V23.8744L37.3972 15.9598L32.5225 11.0851L29.4825 14.1251ZM28.7225 17.0344L31.4479 19.7598L22.3279 28.8798H19.6025V26.1544L28.7225 17.0344ZM24.1625 3.35441L26.8879 6.07977H24.1625V3.35441ZM27.9625 35.7198H2.12254V2.27977H22.6425V7.59977H27.9625V15.6451L18.0825 25.5251V30.3998H22.9572L27.9625 25.3944V35.7198ZM32.5225 18.6851L29.7972 15.9598L32.5225 13.2344L35.2479 15.9598L32.5225 18.6851Z" fill="white"/>
</g>
<defs>
<clipPath id="clip0_1340_3957">
<rect width="38" height="38" fill="white"/>
</clipPath>
</defs>
</svg>
