<svg width="45" height="45" viewBox="0 0 45 45" fill="none" xmlns="http://www.w3.org/2000/svg">
<path d="M19.7437 1.85275C19.0205 2.21456 18.7487 2.75679 18.5503 3.20681C18.3521 3.65686 18.2207 4.01958 17.8692 4.42218C17.5176 4.82479 16.9228 5.28571 15.7419 5.76113C14.561 6.23655 13.8115 6.31553 13.2769 6.26927C12.7423 6.22303 12.3929 6.05029 11.9365 5.86413C11.3832 5.63851 10.842 5.5003 10.1362 5.71983C9.4303 5.93961 8.71156 6.45396 7.71229 7.43234C6.71305 8.41069 6.18079 9.11811 5.94762 9.8191C5.69622 10.5749 5.88782 11.1629 6.0672 11.6209C6.24632 12.0788 6.41313 12.4228 6.45036 12.9543C6.48757 13.4859 6.39269 14.2316 5.89556 15.3988C5.39834 16.566 4.92866 17.1523 4.5154 17.5013C4.10216 17.8503 3.72105 17.9816 3.25883 18.1921C2.79662 18.4025 2.25396 18.7073 1.89379 19.4431C1.56001 20.125 1.41821 21.0372 1.40625 22.4946C1.40622 22.4966 1.40763 22.4973 1.40763 22.4999C1.40763 22.5019 1.40622 22.5026 1.40625 22.5053C1.41954 23.9626 1.56012 24.8748 1.89379 25.5567C2.25396 26.2926 2.79662 26.5973 3.25883 26.8077C3.72105 27.0182 4.10216 27.1495 4.5154 27.4985C4.92866 27.8475 5.39834 28.4338 5.89556 29.601C6.39275 30.7682 6.48759 31.5139 6.45036 32.0455C6.41316 32.577 6.24653 32.921 6.0672 33.3789C5.88809 33.8369 5.69635 34.4249 5.94762 35.1807C6.18068 35.8817 6.71305 36.5891 7.71229 37.5675C8.71156 38.5458 9.4303 39.0603 10.1362 39.28C10.842 39.4997 11.3832 39.3615 11.9365 39.1357C12.3929 38.9494 12.7423 38.7768 13.2769 38.7305C13.8115 38.6843 14.561 38.7632 15.7419 39.2387C16.9228 39.7141 17.5176 40.175 17.8692 40.5776C18.2207 40.9802 18.3519 41.343 18.5503 41.793C18.7486 42.243 19.0205 42.7853 19.7437 43.147C20.3735 43.4621 21.2121 43.5921 22.4999 43.5934C23.7877 43.592 24.6263 43.4621 25.2561 43.147C25.9793 42.7853 26.2511 42.243 26.4495 41.793C26.6477 41.343 26.7791 40.9802 27.1306 40.5776C27.4822 40.175 28.077 39.7141 29.2579 39.2387C30.4388 38.7632 31.1883 38.6843 31.7229 38.7305C32.2575 38.7768 32.6069 38.9495 33.0632 39.1357C33.6166 39.3613 34.1577 39.4995 34.8636 39.28C35.5695 39.0602 36.2883 38.5458 37.2875 37.5675C38.2867 36.5891 38.819 35.8817 39.0522 35.1807C39.3036 34.4249 39.112 33.8369 38.9326 33.3789C38.7535 32.921 38.5867 32.577 38.5494 32.0455C38.5122 31.5139 38.6071 30.7682 39.1042 29.601C39.6015 28.4338 40.0711 27.8475 40.4844 27.4985C40.8977 27.1495 41.2787 27.0181 41.741 26.8077C42.2032 26.5973 42.7458 26.2926 43.106 25.5567C43.4398 24.8748 43.5816 23.9626 43.5935 22.4997C43.5802 21.0368 43.4397 20.1247 43.106 19.4428C42.7458 18.7069 42.2032 18.4021 41.741 18.1917C41.2787 17.9812 40.8977 17.8499 40.4844 17.5009C40.0711 17.1518 39.6015 16.5656 39.1042 15.3984C38.6071 14.2312 38.5122 13.4855 38.5494 12.954C38.5867 12.4224 38.7533 12.0785 38.9326 11.6205C39.1117 11.1626 39.3035 10.5745 39.0522 9.81876C38.8191 9.11774 38.2867 8.41032 37.2875 7.43197C36.2883 6.45362 35.5695 5.93915 34.8636 5.71949C34.1577 5.49971 33.6166 5.6379 33.0632 5.86379C32.6069 6.05008 32.2575 6.22263 31.7229 6.26889C31.1883 6.31513 30.4388 6.23621 29.2579 5.76078C28.077 5.28533 27.4822 4.82442 27.1306 4.42181C26.7791 4.0192 26.6479 3.65648 26.4495 3.20647C26.2512 2.75645 25.9793 2.21422 25.2561 1.8524C24.6263 1.53733 23.7877 1.40749 22.4999 1.40625C21.2121 1.40775 20.3735 1.5377 19.7437 1.85275ZM22.4999 2.8168C23.6822 2.81946 24.3303 2.95871 24.6285 3.10793C24.8828 3.23522 24.9954 3.3931 25.1627 3.77262C25.3301 4.1521 25.5474 4.7444 26.0718 5.34502C26.5963 5.94566 27.409 6.53533 28.7333 7.0685C30.0576 7.6017 31.0526 7.74021 31.8479 7.67138C32.6432 7.60255 33.2121 7.3246 33.5975 7.16739C33.8983 7.04461 34.114 6.95878 34.4489 7.06295C34.7733 7.14985 35.3738 7.53069 36.3015 8.43899C37.2291 9.34727 37.609 9.93146 37.7187 10.2613C37.8284 10.5912 37.7214 10.8599 37.6254 11.1073C37.4742 11.4934 37.2032 12.0608 37.1475 12.8555C37.092 13.6502 37.2485 14.6393 37.8067 15.9495C38.3648 17.2598 38.968 18.0611 39.5769 18.5752C40.1857 19.0894 40.778 19.3019 41.1548 19.4734C41.5316 19.6448 41.7052 19.773 41.8456 20.0598C42.0239 20.4242 42.1404 21.0804 42.1628 21.797L42.1867 22.5001C42.1867 22.5001 42.1867 23.2032 42.1628 23.2032C42.1415 23.9198 42.0238 24.5761 41.8456 24.9405C41.7052 25.2273 41.5316 25.3553 41.1548 25.5269C40.778 25.6983 40.1857 25.9108 39.5769 26.425C38.968 26.9391 38.3648 27.7405 37.8067 29.0507C37.2486 30.3609 37.0919 31.35 37.1475 32.1447C37.2031 32.9394 37.4743 33.5068 37.6254 33.8929C37.7221 34.1403 37.8284 34.409 37.7187 34.7389C37.6089 35.0688 37.2291 35.653 36.3015 36.5612C35.3738 37.4695 34.7733 37.8503 34.4489 37.9373C34.114 38.0414 33.8983 37.9559 33.5975 37.8328C33.2121 37.6755 32.6432 37.3977 31.8479 37.3288C31.0526 37.26 30.0576 37.3985 28.7333 37.9317C27.409 38.4649 26.5963 39.0546 26.0718 39.6552C25.5474 40.2558 25.33 40.8481 25.1627 41.2276C24.9953 41.6071 24.8827 41.7651 24.6285 41.8923C24.3303 42.0414 23.6822 42.1796 22.4999 42.1834C21.3176 42.1781 20.6695 42.0415 20.3713 41.8923C20.117 41.765 20.0044 41.6071 19.8371 41.2276C19.6697 40.8481 19.4524 40.2558 18.928 39.6552C18.4035 39.0545 17.5908 38.4649 16.2665 37.9317C14.9423 37.3985 13.9472 37.26 13.1519 37.3288C12.3566 37.3977 11.7877 37.6756 11.4023 37.8328C11.1015 37.9556 10.8858 38.0414 10.5509 37.9373C10.2265 37.8504 9.626 37.4695 8.69832 36.5612C7.77065 35.653 7.39082 35.0688 7.28109 34.7389C7.17133 34.409 7.27843 34.1403 7.37437 33.8929C7.52558 33.5068 7.79664 32.9394 7.85226 32.1447C7.9078 31.35 7.75128 30.3609 7.1931 29.0507C6.63495 27.7405 6.03178 26.9391 5.42292 26.425C4.81404 25.9108 4.2218 25.6984 3.84502 25.5269C3.46822 25.3554 3.29463 25.2273 3.15423 24.9405C2.97592 24.5761 2.85931 23.9198 2.83701 23.2032L2.81309 22.4946L2.83701 21.797C2.85827 21.0804 2.976 20.4242 3.15423 20.0598C3.29455 19.773 3.46822 19.6449 3.84502 19.4734C4.2218 19.302 4.81404 19.0894 5.42292 18.5752C6.03178 18.0611 6.63495 17.2597 7.1931 15.9495C7.75122 14.6393 7.90793 13.6502 7.85226 12.8555C7.79672 12.0608 7.5255 11.4934 7.37437 11.1073C7.27763 10.8599 7.17133 10.5912 7.28109 10.2613C7.39084 9.93146 7.77065 9.34727 8.69832 8.43899C9.626 7.53069 10.2265 7.1499 10.5509 7.06295C10.8858 6.95878 11.1015 7.04435 11.4023 7.16739C11.7877 7.32471 12.3566 7.60255 13.1519 7.67138C13.9472 7.74021 14.9423 7.60175 16.2665 7.0685C17.5908 6.53533 18.4035 5.94566 18.928 5.34502C19.4524 4.7444 19.6698 4.1521 19.8371 3.77262C20.0045 3.3931 20.117 3.23511 20.3713 3.10793C20.6695 2.95858 21.3176 2.82103 22.4999 2.8168ZM18.2784 11.2502C18.2784 11.2783 18.2766 11.2922 18.277 11.3203C15.3153 12.4399 12.9104 14.6919 11.6056 17.5784H9.14052C8.62428 17.5864 8.33185 18.0758 8.47586 18.504L11.2842 26.9415C11.3347 27.0906 11.4392 27.223 11.5506 27.2986C13.7213 32.2499 18.9667 35.1386 24.3223 34.3133C29.7282 33.4803 33.885 29.0771 34.4022 23.6319C34.9125 18.2596 31.7557 13.2162 26.7228 11.319C26.7232 11.295 26.7201 11.2754 26.7201 11.2504C26.7201 8.92882 24.841 7.03029 22.4993 7.03017C20.1575 7.03005 18.2784 8.92861 18.2784 11.2502ZM22.4986 8.43631C24.0407 8.43631 25.3124 9.68859 25.3124 11.2502C25.3124 12.8118 24.0407 14.0641 22.4986 14.0641C20.9564 14.0641 19.6847 12.8118 19.6847 11.2502C19.6847 9.68859 20.9564 8.43631 22.4986 8.43631ZM22.4985 15.4703C24.3079 15.4703 25.8529 14.3205 26.4536 12.7251C30.7669 14.4651 33.4432 18.8321 33.0001 23.4972C32.9169 24.3722 32.7251 25.2144 32.4425 26.0144H30.7369C30.7608 25.9488 30.7853 25.8831 30.8041 25.8167C31.0324 25.0122 30.9453 24.1024 30.7109 23.4094C29.6214 20.3589 27.1041 18.0395 23.979 17.2062C21.9038 16.6528 19.7345 16.8038 17.7909 17.5797L13.1739 17.5783C14.3341 15.3795 16.2349 13.6573 18.5462 12.7224C19.1546 14.3381 20.6891 15.4703 22.4985 15.4703ZM23.6164 18.5657C26.294 19.2797 28.4472 21.2626 29.3828 23.8707C29.5535 24.3757 29.5742 24.9962 29.4501 25.4335C29.3879 25.6528 29.2965 25.802 29.2056 25.8854C29.1333 25.9518 29.0323 26.0145 28.8266 26.0145H21.7939C21.3922 26.0145 21.0936 25.6939 21.0936 25.3141C21.0936 24.9344 21.3922 24.6082 21.7939 24.6082H26.3615C26.9069 24.6071 27.2551 24.0303 26.9644 23.544C26.3822 22.5846 25.5646 21.792 24.6078 21.2396C23.7946 20.7687 23.0887 21.9882 23.9019 22.459C24.3698 22.7292 24.6325 22.9623 24.9003 23.2006H21.7939C21.6528 23.2006 21.5157 23.2139 21.3819 23.2418L19.7821 18.4545C20.366 18.3368 20.961 18.2746 21.5605 18.2828C22.2469 18.2934 22.9375 18.3846 23.6164 18.5657ZM10.1211 18.9873H18.4775L20.1488 24.0067C19.864 24.366 19.6874 24.8158 19.6874 25.314C19.6874 25.562 19.7376 25.7947 19.8152 26.0144H12.4626L10.1211 18.9873ZM14.7655 20.3908C14.3772 20.3908 14.0624 20.7056 14.0624 21.0939C14.0624 21.4823 14.3772 21.7971 14.7655 21.7971C15.1538 21.7971 15.4687 21.4823 15.4687 21.0939C15.4687 20.7056 15.1538 20.3908 14.7655 20.3908ZM13.1725 27.4207H21.794H28.8267H31.8218C30.2982 30.3044 27.483 32.4027 24.1039 32.9235C19.6248 33.6137 15.2533 31.3721 13.1725 27.4207Z" fill="white"/>
</svg>
