<svg width="41" height="41" viewBox="0 0 41 41" fill="none" xmlns="http://www.w3.org/2000/svg">
<g clip-path="url(#clip0_22_96)">
<path d="M40.7026 39.4847C39.5648 40.4619 38.0991 41 36.5736 41C34.4569 41 32.4155 39.9853 31.2145 38.4478C30.0135 39.9853 27.9755 41 25.8572 41C23.7388 41 21.6991 39.9853 20.4981 38.4478C19.2972 39.9853 17.2574 41 15.1391 41C13.0208 41 10.9827 39.9853 9.78176 38.4478C8.5808 39.9853 6.54105 41 4.42272 41C2.89718 41 1.43143 40.4619 0.293676 39.4847C-0.0633654 39.1772 -0.104365 38.6374 0.203135 38.2803C0.510635 37.9233 1.04876 37.8806 1.40751 38.1881C2.23434 38.9005 3.30547 39.2917 4.42272 39.2917C6.41805 39.2917 8.37751 38.0634 8.98055 36.4336C9.22826 35.7622 10.3353 35.7622 10.583 36.4336C11.186 38.0634 13.1438 39.2917 15.1391 39.2917C17.1344 39.2917 19.0939 38.0634 19.6969 36.4336C19.9446 35.7622 21.0516 35.7622 21.2993 36.4336C21.9024 38.0634 23.8618 39.2917 25.8572 39.2917C27.8525 39.2917 29.8103 38.0634 30.4133 36.4336C30.661 35.7622 31.768 35.7622 32.0157 36.4336C32.6188 38.0634 34.5782 39.2917 36.5736 39.2917C37.6891 39.2917 38.7602 38.9005 39.5888 38.1881C39.9492 37.8806 40.4873 37.9233 40.7931 38.2803C41.1023 38.6374 41.0596 39.1772 40.7026 39.4847ZM3.58222 29.5012C2.73488 26.7713 5.03259 23.7783 7.88893 23.9167L11.9855 8.90213C12.5903 6.67788 14.6232 5.125 16.9294 5.125H17.0849V3.41667C17.0849 1.53237 18.6173 0 20.5016 0C22.3858 0 23.9182 1.53237 23.9182 3.41667V5.125H24.0737C26.3799 5.125 28.4111 6.67788 29.0176 8.90213L33.1125 23.9167C35.9705 23.7783 38.2682 26.7696 37.4192 29.5012C37.0041 30.9926 36.3891 32.4225 35.5998 33.7498C35.3555 34.1564 34.8293 34.2845 34.4279 34.0471C34.023 33.8045 33.8898 33.2817 34.1306 32.8752C34.8447 31.6759 35.3982 30.3861 35.7741 29.0417C36.2831 27.3983 34.9318 25.5789 33.2064 25.625H7.79326C6.06784 25.5789 4.71655 27.3983 5.22563 29.0417C5.60318 30.3878 6.15497 31.6776 6.86905 32.8752C7.11163 33.28 6.97668 33.8045 6.5718 34.0471C6.17376 34.2863 5.64418 34.1598 5.39988 33.7515C4.60893 32.4242 3.99905 30.9943 3.58222 29.5012ZM29.542 23.9167L20.4998 14.8745L11.4576 23.9167H29.542ZM27.3673 9.35142C27.2768 9.01658 27.1299 8.70738 26.9505 8.4255L21.7076 13.6684L31.1086 23.0693L27.3673 9.35142ZM18.7915 5.125H22.2082V3.41667C22.2082 2.47538 21.4428 1.70833 20.4998 1.70833C19.5568 1.70833 18.7915 2.47538 18.7915 3.41667V5.125ZM16.9277 6.83333C16.3418 6.83333 15.7848 6.98537 15.2946 7.25358L20.4998 12.4589L25.7051 7.25358C25.2148 6.98537 24.6562 6.83333 24.072 6.83333H16.9277ZM9.89109 23.0676L19.2921 13.6667L14.0492 8.42379C13.8698 8.70567 13.7246 9.01488 13.6323 9.34971L9.89109 23.0659V23.0676Z" fill="#26EFFB"/>
</g>
<defs>
<clipPath id="clip0_22_96">
<rect width="41" height="41" fill="white"/>
</clipPath>
</defs>
</svg>
