<svg width="38" height="38" viewBox="0 0 38 38" fill="none" xmlns="http://www.w3.org/2000/svg">
<g clip-path="url(#clip0_4_437)">
<path d="M23.75 3.70183V0.791667C23.75 0.354667 23.3953 0 22.9583 0C22.5213 0 22.1667 0.354667 22.1667 0.791667V3.22367C21.9086 3.18725 21.6442 3.16667 21.375 3.16667H17.4167V0.791667C17.4167 0.354667 17.062 0 16.625 0C16.188 0 15.8333 0.354667 15.8333 0.791667V3.16667H11.0833V0.791667C11.0833 0.354667 10.7287 0 10.2917 0C9.85467 0 9.5 0.354667 9.5 0.791667V3.16667H5.54167C5.2725 3.16667 5.00808 3.18567 4.75 3.22367V0.791667C4.75 0.354667 4.39533 0 3.95833 0C3.52133 0 3.16667 0.354667 3.16667 0.791667V3.70183C1.29675 4.59325 0 6.50275 0 8.70833V30.875C0 34.8032 3.19675 38 7.125 38H19.7917C23.7199 38 26.9167 34.8032 26.9167 30.875V8.70833C26.9167 6.50275 25.6199 4.59325 23.75 3.70183ZM25.3333 30.875C25.3333 33.9308 22.8475 36.4167 19.7917 36.4167H7.125C4.06917 36.4167 1.58333 33.9308 1.58333 30.875V8.70833C1.58333 6.52492 3.35983 4.75 5.54167 4.75H21.375C23.5568 4.75 25.3333 6.52492 25.3333 8.70833V30.875ZM20.5833 10.2917C20.5833 10.7287 20.2287 11.0833 19.7917 11.0833H7.125C6.688 11.0833 6.33333 10.7287 6.33333 10.2917C6.33333 9.85467 6.688 9.5 7.125 9.5H19.7917C20.2287 9.5 20.5833 9.85467 20.5833 10.2917ZM20.5833 16.625C20.5833 17.062 20.2287 17.4167 19.7917 17.4167H7.125C6.688 17.4167 6.33333 17.062 6.33333 16.625C6.33333 16.188 6.688 15.8333 7.125 15.8333H19.7917C20.2287 15.8333 20.5833 16.188 20.5833 16.625ZM15.8333 22.9583C15.8333 23.3953 15.4787 23.75 15.0417 23.75H7.125C6.688 23.75 6.33333 23.3953 6.33333 22.9583C6.33333 22.5213 6.688 22.1667 7.125 22.1667H15.0417C15.4787 22.1667 15.8333 22.5213 15.8333 22.9583ZM34.0417 0C31.8598 0 30.0833 1.77492 30.0833 3.95833V32.0752C30.0833 33.535 30.6755 34.9616 31.7063 35.9939L33.4812 37.7688C33.6363 37.924 33.839 38 34.0417 38C34.2443 38 34.447 37.9224 34.6022 37.7688L36.3771 35.9939C37.4094 34.9632 38 33.535 38 32.0752V3.95833C38 1.77492 36.2235 0 34.0417 0ZM36.4167 32.0752C36.4167 33.117 35.9939 34.1382 35.2577 34.8745L34.0417 36.0905L32.8257 34.8745C32.0894 34.1382 31.6667 33.1186 31.6667 32.0752V3.95833C31.6667 2.64892 32.7323 1.58333 34.0417 1.58333C35.3511 1.58333 36.4167 2.64892 36.4167 3.95833V32.0752Z" fill="#26EFFB"/>
</g>
<defs>
<clipPath id="clip0_4_437">
<rect width="38" height="38" fill="white"/>
</clipPath>
</defs>
</svg>
