<svg width="43" height="43" viewBox="0 0 43 43" fill="none" xmlns="http://www.w3.org/2000/svg">
<path d="M40.5907 39.7562C39.7985 40.5483 38.745 40.9844 37.625 40.9844C36.505 40.9844 35.4515 40.5483 34.6593 39.7562L34.0688 39.1656C33.8061 38.9029 33.3814 38.9029 33.1187 39.1656L32.5282 39.7562C31.736 40.5483 30.6825 40.9844 29.5625 40.9844C28.4425 40.9844 27.389 40.5483 26.5968 39.7562L26.0063 39.1656C25.7436 38.9029 25.3189 38.9029 25.0562 39.1656L24.4657 39.7562C23.6735 40.5483 22.62 40.9844 21.5 40.9844C20.38 40.9844 19.3265 40.5483 18.5343 39.7562L17.9438 39.1656C17.6811 38.9029 17.2564 38.9029 16.9937 39.1656L16.4032 39.7562C15.611 40.5483 14.5575 40.9844 13.4375 40.9844C12.3175 40.9844 11.264 40.5483 10.4718 39.7562L9.88126 39.1656C9.61856 38.9029 9.19393 38.9029 8.93123 39.1656L8.34065 39.7562C7.54851 40.5483 6.49501 40.9844 5.37499 40.9844C4.25498 40.9844 3.20148 40.5483 2.40934 39.7562L1.81876 39.1656L0.868729 40.1156L1.45931 40.7062C2.50542 41.7523 3.89553 42.3281 5.37499 42.3281C6.85446 42.3281 8.24457 41.7523 9.29068 40.7062L9.40624 40.5906L9.52181 40.7062C10.5679 41.7523 11.958 42.3281 13.4375 42.3281C14.917 42.3281 16.3071 41.7523 17.3532 40.7062L17.4687 40.5906L17.5843 40.7062C18.6304 41.7523 20.0205 42.3281 21.5 42.3281C22.9795 42.3281 24.3696 41.7523 25.4157 40.7062L25.5312 40.5906L25.6468 40.7062C26.6929 41.7523 28.083 42.3281 29.5625 42.3281C31.042 42.3281 32.4321 41.7523 33.4782 40.7062L33.5937 40.5906L33.7093 40.7062C34.7554 41.7523 36.1455 42.3281 37.625 42.3281C39.1045 42.3281 40.4946 41.7523 41.5407 40.7062L42.1313 40.1156L41.1812 39.1656L40.5907 39.7562Z" fill="#26EFFB"/>
<path d="M5.37499 36.9531C6.85446 36.9531 8.24457 36.3773 9.29068 35.3312L9.40624 35.2157L9.52181 35.3312C10.5679 36.3773 11.958 36.9531 13.4375 36.9531C14.917 36.9531 16.3071 36.3773 17.3532 35.3312L17.4687 35.2157L17.5843 35.3312C18.6304 36.3773 20.0205 36.9531 21.5 36.9531C22.9795 36.9531 24.3696 36.3773 25.4157 35.3312L25.5312 35.2157L25.6468 35.3312C26.6929 36.3773 28.083 36.9531 29.5625 36.9531C31.042 36.9531 32.4321 36.3773 33.4782 35.3312L33.5937 35.2157L33.7093 35.3312C34.7554 36.3773 36.1455 36.9531 37.625 36.9531C39.1045 36.9531 40.4946 36.3773 41.5407 35.3312L42.1313 34.7406L41.1812 33.7906L40.5907 34.3812C39.7985 35.1733 38.745 35.6094 37.625 35.6094C37.2024 35.6094 36.7892 35.5469 36.3955 35.4266L40.2695 25.0952C40.3468 24.8883 40.3179 24.6578 40.1929 24.4764C40.0673 24.2957 39.861 24.1875 39.6406 24.1875H34.2656V22.1719C34.2656 21.8003 33.9653 21.5 33.5937 21.5H32.9219V14.1094C32.9219 13.7378 32.6215 13.4375 32.25 13.4375H30.4648L26.1453 10.0781H31.5781C31.9497 10.0781 32.25 9.7778 32.25 9.40625V5.375C32.25 5.04981 32.0142 4.79114 31.7071 4.72933L31.7098 4.71656L11.5536 0.685312C11.5106 0.676578 11.4655 0.671875 11.4219 0.671875H7.39062C7.01907 0.671875 6.71874 0.972203 6.71874 1.34375V4.70312H3.35937C2.98782 4.70312 2.68749 5.00345 2.68749 5.375V9.40625C2.68749 9.7778 2.98782 10.0781 3.35937 10.0781H6.71874V28.2188H4.03124C3.81221 28.2188 3.60662 28.3256 3.48098 28.5056C3.35534 28.685 3.3251 28.9141 3.40035 29.1204L5.75326 35.5912C5.62762 35.602 5.50198 35.6094 5.37499 35.6094C4.25498 35.6094 3.20148 35.1733 2.40934 34.3812L1.81876 33.7906L0.868729 34.7406L1.45931 35.3312C2.50542 36.3773 3.89553 36.9531 5.37499 36.9531ZM31.5781 24.1875V23.5156H30.2344V24.1875C30.0348 24.1875 29.846 24.2762 29.7177 24.4287L28.8906 25.4217V23.5156H27.5469V27.0342L26.5599 28.2188H18.1406V22.8438H32.25H32.9219V24.1875H31.5781ZM31.5781 21.5H17.4687H16.7969V14.7812H31.5781V21.5ZM20.0985 13.4375L24.1875 10.2575L28.2765 13.4375H20.0985ZM17.9102 13.4375H16.125C15.7534 13.4375 15.4531 13.7378 15.4531 14.1094V22.1719C15.4531 22.5434 15.7534 22.8438 16.125 22.8438H16.7969V28.2188H12.0937V10.0781H22.2297L17.9102 13.4375ZM30.9062 7.78434L29.1688 6.04688H30.9062V7.78434ZM19.4844 6.32503L21.8937 8.73438H17.075L19.4844 6.32503ZM15.4531 8.45622L13.0438 6.04688H17.8625L15.4531 8.45622ZM21.1063 6.04688H25.925L23.5156 8.45622L21.1063 6.04688ZM27.5469 6.32503L29.9562 8.73438H25.1375L27.5469 6.32503ZM12.0937 4.70312V2.16344L24.7929 4.70312H12.0937ZM10.75 4.70312H9.01252L10.75 2.96566V4.70312ZM9.79996 6.04688L7.39062 8.45622L4.98128 6.04688H9.79996ZM11.4219 6.32503L13.8312 8.73438H9.01252L11.4219 6.32503ZM10.75 23.9093L8.34065 21.5L10.75 19.0907V23.9093ZM10.75 15.8468L8.34065 13.4375L10.75 11.0282V15.8468ZM8.06249 15.0594L10.4718 17.4688L8.06249 19.8781V15.0594ZM10.4718 25.5312L8.06249 27.9406V23.1219L10.4718 25.5312ZM10.75 27.1532V28.2188H9.6844L10.75 27.1532ZM9.79996 2.01562L8.06249 3.75309V2.01562H9.79996ZM4.03124 6.99691L5.76871 8.73438H4.03124V6.99691ZM9.79996 10.0781L8.06249 11.8156V10.0781H9.79996ZM4.99068 29.5625H26.875C27.0745 29.5625 27.2633 29.4738 27.3917 29.3213L28.8698 27.5469H28.8906V27.522L30.5495 25.5312H38.6711L35.1861 34.8233C35.0013 34.6903 34.8233 34.5451 34.6593 34.3812L34.0688 33.7906C33.8061 33.5279 33.3814 33.5279 33.1187 33.7906L32.5282 34.3812C31.736 35.1733 30.6825 35.6094 29.5625 35.6094C28.4425 35.6094 27.389 35.1733 26.5968 34.3812L26.0063 33.7906C25.7436 33.5279 25.3189 33.5279 25.0562 33.7906L24.4657 34.3812C23.6735 35.1733 22.62 35.6094 21.5 35.6094C20.38 35.6094 19.3265 35.1733 18.5343 34.3812L17.9438 33.7906C17.6811 33.5279 17.2564 33.5279 16.9937 33.7906L16.4032 34.3812C15.611 35.1733 14.5575 35.6094 13.4375 35.6094C12.3175 35.6094 11.264 35.1733 10.4718 34.3812L9.88126 33.7906C9.61856 33.5279 9.19393 33.5279 8.93123 33.7906L8.34065 34.3812C7.96574 34.7561 7.53104 35.0477 7.06006 35.2546L4.99068 29.5625Z" fill="#26EFFB"/>
<path d="M19.4844 16.125H18.1406V20.1562H19.4844V16.125Z" fill="#26EFFB"/>
<path d="M22.1719 16.125H20.8281V20.1562H22.1719V16.125Z" fill="#26EFFB"/>
<path d="M24.8594 16.125H23.5156V20.1562H24.8594V16.125Z" fill="#26EFFB"/>
<path d="M27.5469 16.125H26.2031V20.1562H27.5469V16.125Z" fill="#26EFFB"/>
<path d="M30.2344 16.125H28.8906V20.1562H30.2344V16.125Z" fill="#26EFFB"/>
<path d="M20.8281 23.5156H19.4844V27.5469H20.8281V23.5156Z" fill="#26EFFB"/>
<path d="M23.5156 23.5156H22.1719V27.5469H23.5156V23.5156Z" fill="#26EFFB"/>
<path d="M26.2031 23.5156H24.8594V27.5469H26.2031V23.5156Z" fill="#26EFFB"/>
</svg>
