<svg width="42" height="42" viewBox="0 0 42 42" fill="none" xmlns="http://www.w3.org/2000/svg">
<path d="M7.875 3.9375C7.8754 3.58952 8.01381 3.25592 8.25989 3.00987C8.5059 2.76381 8.83952 2.6254 9.1875 2.625H9.84375C10.1917 2.6254 10.5253 2.76381 10.7714 3.00987C11.0175 3.25592 11.1558 3.58952 11.1562 3.9375C11.1571 4.63345 11.4338 5.30067 11.9259 5.79278C12.4181 6.2849 13.0853 6.56171 13.7812 6.5625H14.4375C15.1335 6.56171 15.8007 6.2849 16.2928 5.79278C16.7849 5.30067 17.0617 4.63345 17.0625 3.9375C17.0629 3.58952 17.2013 3.25592 17.4474 3.00987C17.6934 2.76381 18.027 2.6254 18.375 2.625H19.0312C19.3792 2.6254 19.7128 2.76381 19.9589 3.00987C20.205 3.25592 20.3433 3.58952 20.3438 3.9375C20.3446 4.63345 20.6213 5.30067 21.1134 5.79278C21.6056 6.2849 22.2728 6.56171 22.9688 6.5625H23.625C24.321 6.56171 24.9882 6.2849 25.4803 5.79278C25.9724 5.30067 26.2492 4.63345 26.25 3.9375C26.2504 3.58952 26.3888 3.25592 26.6349 3.00987C26.8809 2.76381 27.2145 2.6254 27.5625 2.625H28.2188C28.5667 2.6254 28.9003 2.76381 29.1464 3.00987C29.3925 3.25592 29.5308 3.58952 29.5312 3.9375C29.5321 4.63345 29.8088 5.30067 30.3009 5.79278C30.7931 6.2849 31.4603 6.56171 32.1562 6.5625H32.8125C33.5085 6.56171 34.1757 6.2849 34.6678 5.79278C35.1599 5.30067 35.4367 4.63345 35.4375 3.9375C35.4379 3.58952 35.5763 3.25592 35.8224 3.00987C36.0684 2.76381 36.402 2.6254 36.75 2.625H38.0625V1.3125H36.75C36.054 1.31329 35.3868 1.5901 34.8947 2.08222C34.4026 2.57433 34.1258 3.24155 34.125 3.9375C34.1246 4.28548 33.9862 4.61908 33.7401 4.86513C33.4941 5.11119 33.1605 5.2496 32.8125 5.25H32.1562C31.8083 5.2496 31.4747 5.11119 31.2286 4.86513C30.9825 4.61908 30.8442 4.28548 30.8438 3.9375C30.8429 3.24155 30.5662 2.57433 30.0741 2.08222C29.5819 1.5901 28.9147 1.31329 28.2188 1.3125H27.5625C26.8665 1.31329 26.1993 1.5901 25.7072 2.08222C25.2151 2.57433 24.9383 3.24155 24.9375 3.9375C24.9371 4.28548 24.7987 4.61908 24.5526 4.86513C24.3066 5.11119 23.973 5.2496 23.625 5.25H22.9688C22.6208 5.2496 22.2872 5.11119 22.0411 4.86513C21.795 4.61908 21.6567 4.28548 21.6562 3.9375C21.6554 3.24155 21.3787 2.57433 20.8866 2.08222C20.3944 1.5901 19.7272 1.31329 19.0312 1.3125H18.375C17.679 1.31329 17.0118 1.5901 16.5197 2.08222C16.0276 2.57433 15.7508 3.24155 15.75 3.9375C15.7496 4.28548 15.6112 4.61908 15.3651 4.86513C15.1191 5.11119 14.7855 5.2496 14.4375 5.25H13.7812C13.4333 5.2496 13.0997 5.11119 12.8536 4.86513C12.6075 4.61908 12.4692 4.28548 12.4688 3.9375C12.4679 3.24155 12.1912 2.57433 11.6991 2.08222C11.2069 1.5901 10.5397 1.31329 9.84375 1.3125H9.1875C8.49155 1.31329 7.82433 1.5901 7.33222 2.08222C6.8401 2.57433 6.56329 3.24155 6.5625 3.9375V6.5625H7.875V3.9375Z" fill="#26EFFB"/>
<path d="M22.9688 12.4688H18.375V18.375H22.9688V12.4688ZM21.6562 17.0625H19.6875V13.7812H21.6562V17.0625Z" fill="#26EFFB"/>
<path d="M28.875 12.4688H24.2812V18.375H28.875V12.4688ZM27.5625 17.0625H25.5938V13.7812H27.5625V17.0625Z" fill="#26EFFB"/>
<path d="M28.875 19.6875H24.2812V25.5938H28.875V19.6875ZM27.5625 24.2812H25.5938V21H27.5625V24.2812Z" fill="#26EFFB"/>
<path d="M38.7188 13.9932L34.125 12.1557V16.225L31.5 15.2875V9.1875H15.75V15.0938H14.4375C13.9155 15.0943 13.4151 15.3019 13.046 15.671C12.6769 16.0401 12.4693 16.5405 12.4688 17.0625V19.6875H10.0975L9.82898 7.875H3.95224L3.29599 36.75H3.28125C2.75929 36.7506 2.25887 36.9582 1.88979 37.3273C1.5207 37.6964 1.31309 38.1968 1.3125 38.7188V40.6875H12.4688V38.7188C12.4682 38.1968 12.2606 37.6964 11.8915 37.3273C11.5224 36.9582 11.022 36.7506 10.5 36.75H10.4852L10.187 23.625H15.75V28.875H13.7812V40.6875H40.6875V18.5688L38.7188 17.8657V13.9932ZM13.7812 17.0625C13.7814 16.8885 13.8506 16.7217 13.9737 16.5987C14.0967 16.4756 14.2635 16.4064 14.4375 16.4062H15.75V19.6875H13.7812V17.0625ZM5.23526 9.1875H8.54602L8.63551 13.125H5.14578L5.23526 9.1875ZM5.11594 14.4375H8.66529L8.81442 21H4.9668L5.11594 14.4375ZM4.93698 22.3125H8.84428L8.99341 28.875H4.78781L4.93698 22.3125ZM4.75799 30.1875H9.02327L9.17241 36.75H4.60885L4.75799 30.1875ZM10.5 38.0625C10.674 38.0627 10.8408 38.1319 10.9638 38.2549C11.0869 38.378 11.1561 38.5448 11.1562 38.7188V39.375H2.625V38.7188C2.6252 38.5448 2.69441 38.378 2.81743 38.2549C2.94046 38.1319 3.10726 38.0627 3.28125 38.0625H10.5ZM10.1571 22.3125L10.1273 21H19.0312C19.7272 21.0008 20.3944 21.2776 20.8866 21.7697C21.3787 22.2618 21.6554 22.929 21.6562 23.625V28.875H20.3438V24.2812C20.3432 23.7593 20.1356 23.2589 19.7665 22.8898C19.3974 22.5207 18.897 22.3131 18.375 22.3125H10.1571ZM19.0312 24.2812V28.875H17.0625V23.625H18.375C18.549 23.6252 18.7158 23.6944 18.8388 23.8174C18.9619 23.9405 19.0311 24.1073 19.0312 24.2812ZM25.5938 39.375H19.6875V34.7812H25.5938V39.375ZM30.1875 39.375H26.9062V33.4688H18.375V39.375H15.0938V30.1875H30.1875V39.375ZM30.1875 28.875H22.9688V23.625C22.9676 22.5811 22.5524 21.5802 21.8142 20.8421C21.076 20.1039 20.0752 19.6886 19.0312 19.6875H17.0625V10.5H30.1875V28.875ZM35.4375 14.0943L37.4062 14.8819V17.3969L35.4375 16.6938V14.0943ZM36.0938 39.375H34.7812V37.4062H36.0938V39.375ZM36.0938 36.0938H34.7812V34.125H36.0938V36.0938ZM36.0938 32.8125H34.7812V30.8438H36.0938V32.8125ZM36.0938 29.5312H34.7812V27.5625H36.0938V29.5312ZM39.375 19.4937V39.375H37.4062V24.2812H36.0938V26.25H34.7812V24.2812H33.4688V39.375H31.5V16.6812L39.375 19.4937Z" fill="#26EFFB"/>
<path d="M40.6875 1.3125H39.375V2.625H40.6875V1.3125Z" fill="#26EFFB"/>
</svg>
