<svg width="38" height="38" viewBox="0 0 38 38" fill="none" xmlns="http://www.w3.org/2000/svg">
<g clip-path="url(#clip0_22_102)">
<path d="M10.2917 0C4.617 0 0 4.617 0 10.2917C0 15.9663 4.617 20.5833 10.2917 20.5833C15.9663 20.5833 20.5833 15.9663 20.5833 10.2917C20.5833 4.617 15.9663 0 10.2917 0ZM10.2917 19C5.48942 19 1.58333 15.0923 1.58333 10.2917C1.58333 5.491 5.48942 1.58333 10.2917 1.58333C15.0939 1.58333 19 5.491 19 10.2917C19 15.0923 15.0939 19 10.2917 19ZM38 8.70833V15.8333H36.4167V8.70833C36.4167 7.39892 35.3511 6.33333 34.0417 6.33333H25.8226L29.4088 9.92117L28.2894 11.0406L24.4293 7.17883C23.9923 6.74342 23.7516 6.16075 23.7516 5.54325C23.7516 4.92575 23.9923 4.34308 24.4293 3.90767L28.2894 0.04275L29.4088 1.16217L25.8226 4.75H34.0417C36.2235 4.75 38 6.52492 38 8.70833ZM19 21.1438V32.6008L28.4937 38.0317L37.9937 32.6008V21.1438L28.4937 15.713L19 21.1438ZM36.0858 21.8769L28.5 26.144L20.9111 21.8753L28.4937 17.5386L36.0858 21.8769ZM20.5833 23.5062L27.7083 27.5136V35.758L20.5833 31.6825V23.5062ZM29.2917 35.7501V27.5136L36.4103 23.5093V31.6809L29.2917 35.7485V35.7501ZM15.1034 12.9358C15.1034 14.5334 13.8368 15.8333 12.2803 15.8333H11.0833V17.4167H9.5V15.8333H8.36475C6.80833 15.8333 5.54167 14.5334 5.54167 12.9358V12.6667H7.125V12.9358C7.125 13.661 7.68075 14.25 8.36475 14.25H12.2803C12.9643 14.25 13.5201 13.661 13.5201 12.9358C13.5201 12.3484 13.148 11.8275 12.6144 11.6692L7.71558 10.4421C6.48217 10.0779 5.643 8.93158 5.643 7.6475C5.643 6.04992 6.90967 4.75 8.46608 4.75H9.5V3.16667H11.0833V4.75H12.2186C13.775 4.75 15.0417 6.04992 15.0417 7.6475V7.95625H13.4583V7.6475C13.4583 6.92233 12.9026 6.33333 12.2186 6.33333H8.4645C7.7805 6.33333 7.22475 6.92233 7.22475 7.6475C7.22475 8.23492 7.59683 8.75583 8.13042 8.91417L13.0293 10.1413C14.2627 10.5054 15.1034 11.6518 15.1034 12.9358ZM13.5723 30.8228C14.0093 31.2582 14.25 31.8408 14.25 32.4583C14.25 33.0758 14.0093 33.6585 13.5723 34.0939L9.71058 37.9557L8.59117 36.8363L12.1774 33.2484H3.95833C1.7765 33.2484 0 31.4735 0 29.2901V22.1651H1.58333V29.2901C1.58333 30.5995 2.64892 31.6651 3.95833 31.6651H12.1774L8.59117 28.0772L9.71058 26.9578L13.5723 30.8196V30.8228Z" fill="#26EFFB"/>
</g>
<defs>
<clipPath id="clip0_22_102">
<rect width="38" height="38" fill="white"/>
</clipPath>
</defs>
</svg>
