<svg width="41" height="41" viewBox="0 0 41 41" fill="none" xmlns="http://www.w3.org/2000/svg">
<g clip-path="url(#clip0_7_464)">
<path fill-rule="evenodd" clip-rule="evenodd" d="M26.877 20.2478H12.9221C12.754 20.2478 12.5858 20.1757 12.4657 20.0316L7.85413 15.0117H7.83011H1.51318L2.85823 19.4792C3.65085 19.4311 6.74927 19.4792 7.75806 19.4792C8.59871 19.4792 8.59871 20.7522 7.75806 20.7522H3.24253L6.67721 32.065C7.97423 32.065 9.51143 31.8969 11.2648 31.4405C11.7211 31.2484 15.2999 29.9514 20.7522 31.4165C20.8002 31.4405 20.8243 31.4405 20.8483 31.4645C20.8723 31.4645 24.2589 32.8336 29.519 31.4405C29.8793 31.2964 31.9449 30.5518 35.2355 30.792L37.7575 24.427H30.5278C29.7112 24.427 29.7112 23.154 30.5278 23.154H38.2619L39.4148 20.2478H26.877ZM26.0603 28.3181C24.5231 28.3181 23.2501 27.0451 23.2501 25.5079C23.2501 23.9467 24.5231 22.6737 26.0603 22.6737C27.6216 22.6737 28.8946 23.9467 28.8946 25.5079C28.8946 27.0451 27.6216 28.3181 26.0603 28.3181ZM26.0603 23.9467C24.0187 23.9467 24.0187 27.0451 26.0603 27.0451C28.1019 27.0451 28.1019 23.9467 26.0603 23.9467ZM19.1429 28.3181C17.6057 28.3181 16.3327 27.0451 16.3327 25.5079C16.3327 23.9467 17.6057 22.6737 19.1429 22.6737C20.7042 22.6737 21.9772 23.9467 21.9772 25.5079C21.9772 27.0451 20.7042 28.3181 19.1429 28.3181ZM19.1429 23.9467C17.1013 23.9467 17.1013 27.0451 19.1429 27.0451C21.1845 27.0451 21.1845 23.9467 19.1429 23.9467ZM12.2255 28.3181C10.6643 28.3181 9.41535 27.0451 9.41535 25.5079C9.41535 23.9467 10.6643 22.6737 12.2255 22.6737C13.7868 22.6737 15.0598 23.9467 15.0598 25.5079C15.0598 27.0451 13.7868 28.3181 12.2255 28.3181ZM12.2255 23.9467C10.1839 23.9467 10.1839 27.0451 12.2255 27.0451C14.2671 27.0451 14.2671 23.9467 12.2255 23.9467ZM38.0697 17.3415H29.7352V18.9988H38.0697V17.3415ZM29.7352 16.0685H38.0697V14.8676H29.7352V16.0685ZM29.7352 13.5946H38.0697V11.9373H29.7352V13.5946ZM18.9988 11.6491C17.6057 11.6491 16.645 9.99177 17.6538 9.60747C17.966 9.48738 18.3263 9.65551 18.4704 9.99177C18.7106 10.6643 19.7434 10.3521 19.5753 9.63149C19.3351 8.76682 18.3023 9.67953 18.0861 8.76682L17.1734 5.21204C16.3087 4.94784 15.9004 4.20326 16.2127 3.38662L16.7651 1.96951C17.0533 1.29699 17.7979 0.960726 18.5185 1.22493C19.2871 1.48914 20.0557 1.8254 20.8483 2.04157L33.9865 5.76448H37.0369C37.3972 5.76448 37.6854 6.0527 37.6854 6.41298V10.6643C38.2138 10.6643 39.3427 10.4721 39.3427 11.3128V18.9988H40.3515C40.8078 18.9988 41.1201 19.4552 40.952 19.8635L36.5565 30.9361C37.3251 31.0322 38.1418 31.2003 39.0305 31.4405C39.8231 31.6567 39.5108 32.8816 38.6942 32.6655C33.29 31.2484 30.0475 32.6174 29.9033 32.6655C26.3005 33.6743 22.8899 33.4821 20.4159 32.6655C15.1078 31.2484 11.7692 32.6174 11.7211 32.6415C11.6971 32.6415 11.6731 32.6655 11.6491 32.6655C9.70358 33.1699 8.02226 33.338 6.60516 33.338C3.843 33.338 2.20973 32.6655 2.08963 32.6174C1.32103 32.2812 1.82543 31.1283 2.59403 31.4405C2.61804 31.4645 3.60281 31.8488 5.33216 32.017L0.0240194 14.5794C-0.0720556 14.2671 0.0720569 13.9549 0.336263 13.8348V8.47859C0.336263 8.11831 0.624488 7.83009 0.960751 7.83009H4.73169C4.97188 7.83009 5.18805 7.9742 5.30814 8.16635L8.21441 13.7627C8.35853 13.7627 8.50264 13.8348 8.59871 13.9549L13.1142 18.8787V14.6754C13.1142 14.3392 13.4025 14.0509 13.7387 14.0509H18.8787C19.239 14.0509 19.5272 14.3392 19.5272 14.6754V18.9988H21.0885V14.6754C21.0885 14.3392 21.3767 14.0509 21.7129 14.0509H26.877C27.2132 14.0509 27.5015 14.3392 27.5015 14.6754V18.9988H28.4622V11.3128C28.4622 10.4721 29.5911 10.6643 30.1435 10.6643V9.72757L27.9818 9.43934C27.6216 9.41533 25.2917 7.73401 24.8114 7.51784L19.4071 5.88457L18.5905 5.64438L19.167 7.92616C21.4728 8.14233 21.3527 11.6491 18.9988 11.6491ZM19.215 4.5155L19.8155 3.02634L18.0861 2.40185C18.0381 2.40185 17.966 2.40185 17.966 2.44989C17.894 2.61802 17.3656 3.86699 17.4136 3.96307L19.215 4.5155ZM28.2941 8.21439L30.1435 8.45458V6.41298C30.1435 6.26887 30.1916 6.14878 30.2636 6.02868L21.0404 3.43466L20.44 4.8998C21.0164 5.06793 25.2437 6.29289 25.4118 6.41298L28.2941 8.21439ZM6.60516 39.8471C3.843 39.8471 2.20973 39.1746 2.08963 39.1265C1.32103 38.7903 1.82543 37.6374 2.59403 37.9496C2.64206 37.9736 6.00469 39.3427 11.2648 37.9496C11.7211 37.7574 15.2999 36.4604 20.7522 37.9256C20.8002 37.9496 20.8243 37.9496 20.8483 37.9736C20.8723 37.9736 24.2589 39.3427 29.519 37.9496C29.9754 37.7574 33.5542 36.4604 39.0305 37.9496C39.8231 38.1417 39.5108 39.3907 38.6942 39.1746C33.2419 37.7334 30.0715 39.1265 29.9033 39.1746C26.1324 40.1353 23.058 40.0632 20.3919 39.1746C15.1078 37.7574 11.7452 39.1265 11.7211 39.1505C11.6971 39.1505 11.6731 39.1746 11.6251 39.1746C9.70358 39.6789 8.02226 39.8471 6.60516 39.8471ZM6.60516 36.5805C3.843 36.5805 2.20973 35.908 2.08963 35.86C1.32103 35.5237 1.82543 34.3708 2.59403 34.7071C2.64206 34.7071 6.00469 36.0761 11.2648 34.683C11.7211 34.4909 15.2999 33.1939 20.7522 34.683C20.8002 34.683 20.8243 34.683 20.8483 34.7071C20.8723 34.7311 24.2589 36.1002 29.519 34.683C29.9754 34.5149 33.5542 33.2179 39.0305 34.683C39.8231 34.8992 39.5108 36.1242 38.6942 35.908C33.29 34.4909 30.0475 35.86 29.9033 35.908C26.3005 36.9408 22.8899 36.7487 20.4159 35.908C15.1078 34.4909 11.7692 35.884 11.7211 35.884C11.6971 35.908 11.6731 35.908 11.6491 35.932C9.70358 36.4124 8.02226 36.5805 6.60516 36.5805ZM14.3872 18.9748L18.2542 18.9988V15.3239H14.3872V18.9748ZM31.4165 10.6643H36.3884V7.03747H31.4165V10.6643ZM26.2285 18.9988V15.3239H22.3615V18.9988H26.2285ZM4.05917 12.0574H2.64206C1.82543 12.0574 1.82543 10.7844 2.64206 10.7844H4.05917C4.89983 10.7844 4.89983 12.0574 4.05917 12.0574ZM1.60926 13.7387H6.77329L4.34739 9.10308H1.60926V13.7387Z" fill="#26EFFB"/>
</g>
<defs>
<clipPath id="clip0_7_464">
<rect width="41" height="41" fill="white"/>
</clipPath>
</defs>
</svg>
