<svg width="42" height="43" viewBox="0 0 42 43" fill="none" xmlns="http://www.w3.org/2000/svg">
<g clipPath="url(#clip0_1568_13119)">
<path d="M9.0668 24.8008C8.92341 24.9159 8.75166 24.9718 8.58117 24.9718C8.35345 24.9718 8.12778 24.8722 7.97429 24.6804L7.86753 24.5471C7.7527 24.4036 7.69684 24.232 7.69674 24.0614C7.69665 23.8332 7.79622 23.6071 7.98789 23.4532C8.32275 23.1846 8.81189 23.2383 9.0804 23.5736L9.18717 23.707C9.30199 23.8504 9.35785 24.022 9.35805 24.1926C9.35805 24.4208 9.25837 24.647 9.0668 24.8008ZM11.2764 28.8062C11.4299 28.9983 11.6558 29.0982 11.8837 29.0982C12.054 29.0982 12.2255 29.0425 12.3688 28.9276C12.5606 28.774 12.6603 28.5479 12.6604 28.3197C12.6604 28.1492 12.6048 27.9774 12.49 27.8339L12.3835 27.7006C12.1153 27.365 11.6261 27.3106 11.2911 27.5792C11.0993 27.7328 10.9995 27.9589 10.9994 28.1871C10.9994 28.3576 11.0551 28.5294 11.1698 28.6729L11.2764 28.8062ZM10.9661 25.1768C11.1368 25.1768 11.3087 25.1208 11.4522 25.0054C11.6438 24.8514 11.7432 24.6252 11.7429 24.397C11.7426 24.2264 11.6866 24.0547 11.5716 23.9114L11.4648 23.7782C11.1961 23.4431 10.7068 23.3896 10.3722 23.6586C10.1813 23.8121 10.0819 24.0374 10.0815 24.2647C10.0813 24.436 10.1373 24.6085 10.2527 24.7526L10.3595 24.8859C10.5131 25.0773 10.7386 25.1768 10.9661 25.1768ZM8.99637 27.2935C9.14986 27.4851 9.37543 27.5847 9.60305 27.5847C9.77364 27.5847 9.94539 27.5288 10.0889 27.4135C10.2805 27.2597 10.38 27.0334 10.3798 26.8052C10.3796 26.6347 10.3237 26.4629 10.2089 26.3197L10.1021 26.1864C9.83348 25.8513 9.34435 25.7975 9.00958 26.0664C8.81801 26.2203 8.71843 26.4465 8.71863 26.6747C8.71882 26.8452 8.77478 27.017 8.88961 27.1603L8.99637 27.2935ZM0.670719 19.0732C-0.384195 17.7551 -0.171445 15.8233 1.14499 14.767C1.79636 14.2443 2.60899 14.0226 3.39898 14.1114C3.48457 13.3205 3.87762 12.5744 4.52889 12.0517C5.84542 10.9954 7.77485 11.2082 8.82986 12.5265C9.717 13.6349 9.70768 15.1772 8.89961 16.2681L10.2707 17.981L10.8869 17.4866C11.0567 17.3505 11.2755 17.2918 11.4902 17.3246C11.793 17.3709 12.1001 17.4377 12.4031 17.5235C12.8162 17.6402 13.0564 18.0702 12.9397 18.4838C12.8231 18.8973 12.3937 19.1383 11.9805 19.021C11.8482 18.9837 11.7153 18.9507 11.5826 18.9227L6.30599 23.1565C6.29667 24.0191 6.47435 24.9287 6.82582 25.8079C6.98534 26.2068 6.79153 26.6597 6.39304 26.8193C6.29832 26.8574 6.20059 26.8753 6.10451 26.8753C5.79617 26.8753 5.50434 26.6903 5.38271 26.3861C4.89951 25.1773 4.68695 23.9089 4.76826 22.7181C4.78303 22.501 4.88804 22.2999 5.05766 22.1638L5.67376 21.6695L4.30264 19.9564C3.06315 20.5085 1.55786 20.1814 0.670719 19.0732ZM3.99964 18.3334C4.14303 18.2184 4.31468 18.1625 4.48518 18.1625C4.71289 18.1625 4.93856 18.2622 5.09215 18.454L6.88683 20.6963L9.05796 18.9542L7.26328 16.7121C7.13436 16.5511 7.07471 16.3453 7.09725 16.1401C7.11979 15.9351 7.22286 15.7473 7.38374 15.6183C8.03141 15.0985 8.13614 14.1481 7.61699 13.4996C7.09793 12.8512 6.14871 12.7462 5.50104 13.2661C4.99248 13.6741 4.80382 14.3586 5.03172 14.9693C5.14917 15.284 5.05164 15.6387 4.78973 15.8488C4.52792 16.059 4.1609 16.0772 3.87966 15.8938C3.33399 15.5384 2.62569 15.5734 2.11704 15.9814C1.46936 16.5011 1.36464 17.4515 1.88359 18.1C2.40274 18.7484 3.35196 18.8533 3.99964 18.3334ZM16.714 19.6573V21.0042C16.714 21.4339 17.062 21.7823 17.4912 21.7823C17.9203 21.7823 18.2683 21.4339 18.2683 21.0042V19.6573C18.2683 19.2276 17.9203 18.8792 17.4912 18.8792C17.062 18.8792 16.714 19.2276 16.714 19.6573ZM25.4402 20.2013C24.8735 19.7648 24.279 19.5386 23.673 19.5286C23.6644 19.5283 23.6559 19.5283 23.6475 19.5286C22.6184 19.5455 21.5945 20.2118 20.7644 21.4048C19.5118 23.205 18.6761 26.2615 19.5026 28.6201C19.6148 28.9404 19.9151 29.1409 20.2359 29.1409C20.3212 29.1409 20.4081 29.1267 20.4932 29.0969C20.8982 28.9547 21.1114 28.5106 20.9693 28.105C20.3462 26.3266 21.0243 23.7541 22.0398 22.2946C22.5645 21.5404 23.1544 21.1005 23.6604 21.085C23.9215 21.0929 24.2014 21.2105 24.4925 21.4349C24.8326 21.6969 25.3207 21.6331 25.5824 21.2926C25.844 20.9519 25.7804 20.4634 25.4402 20.2013ZM30.8764 28.3537C31.3078 28.3629 31.6616 28.024 31.6718 27.5943C31.7261 25.3164 30.9654 22.7405 29.1433 22.1208C29.1352 22.1181 29.1271 22.1155 29.119 22.1131C28.305 21.8659 27.3674 22.0356 26.4081 22.6043C24.608 23.6717 22.9743 26.007 22.5234 28.1573C22.4353 28.5778 22.7043 28.9903 23.1244 29.0787C23.1782 29.09 23.2319 29.0955 23.2848 29.0955C23.6447 29.0955 23.9677 28.8437 24.0447 28.4771C24.4081 26.7437 25.7646 24.7947 27.2001 23.9435C27.7599 23.6116 28.2761 23.4893 28.6553 23.5988C29.5363 23.9118 30.1644 25.6088 30.118 27.5574C30.1078 27.9868 30.4473 28.3434 30.8764 28.3537ZM7.71209 10.199C7.82138 10.2522 7.93689 10.2773 8.05075 10.2773C8.33908 10.2773 8.61614 10.116 8.75049 9.83867C8.78236 9.77292 9.16735 8.78429 9.20067 8.70793C11.0228 5.21302 14.5136 2.8964 18.7802 2.35121C23.2278 1.78327 27.6882 3.31533 30.421 6.35046C30.7083 6.6696 31.1999 6.69508 31.5185 6.40746C31.8374 6.11965 31.8628 5.62757 31.5754 5.30843C30.0152 3.57561 27.9541 2.24957 25.615 1.47366C23.3872 0.734625 20.9558 0.50449 18.5834 0.807381C13.7987 1.4188 9.8738 4.04143 7.81487 8.00304C7.77572 8.07842 7.37179 9.11305 7.3477 9.16879C7.16739 9.55358 7.32904 10.013 7.71209 10.199ZM23.8641 16.9397C24.1593 17.2517 24.1459 17.7442 23.8342 18.0398C23.5226 18.3353 23.0307 18.3219 22.7355 18.0098C22.4581 17.7166 22.105 17.5198 21.7147 17.4409C21.352 17.3677 21.0913 17.0486 21.0913 16.6781V15.6703H17.6687V16.6781C17.6687 17.0486 17.4079 17.3677 17.0453 17.4409C16.1467 17.6224 15.4947 18.4192 15.4947 19.3354V28.126C15.4947 28.5558 15.1467 28.9042 14.7175 28.9042C14.2883 28.9042 13.9403 28.5558 13.9403 28.126V19.3354C13.9403 17.902 14.8238 16.6306 16.1145 16.1037V15.2525C15.7445 14.9343 15.5096 14.4627 15.5096 13.9372V12.9112C15.5096 11.9556 16.286 11.1781 17.2405 11.1781H21.5197C22.4742 11.1781 23.2506 11.9556 23.2506 12.9112V13.9372C23.2506 14.4628 23.0158 14.9344 22.6456 15.2525V16.1033C23.1032 16.2897 23.5171 16.5728 23.8641 16.9397ZM21.6963 12.9112C21.6963 12.8153 21.6155 12.7344 21.5198 12.7344H17.2406C17.1448 12.7344 17.064 12.8153 17.064 12.9112V13.9372C17.064 14.0097 17.1103 14.0737 17.1743 14.1006C17.1765 14.1015 17.1787 14.1025 17.181 14.1033C17.1997 14.1103 17.2198 14.1141 17.2406 14.1141H21.5198C21.5401 14.1141 21.5598 14.1105 21.5782 14.1038C21.5813 14.1025 21.5843 14.1013 21.5874 14.1002C21.6507 14.073 21.6964 14.0092 21.6964 13.9372V12.9112H21.6963ZM38.4593 28.609C38.4192 30.3545 37.2883 32.5973 35.3566 34.7621C33.4766 36.8688 31.0576 38.6807 28.5012 39.9037V41.8996C28.5012 42.3293 28.1532 42.6777 27.724 42.6777H13.529C13.0998 42.6777 12.7519 42.3293 12.7519 41.8996V39.9037C10.1954 38.6807 7.77631 36.8688 5.89642 34.7621C3.96457 32.5973 2.83369 30.3546 2.79366 28.609C2.78676 28.3052 2.95696 28.0252 3.22965 27.8918C3.50244 27.7586 3.82769 27.7964 4.06259 27.9887C4.40008 28.2651 5.6556 28.9645 10.0133 29.4888C12.9673 29.8443 16.7365 30.0401 20.6266 30.0401C24.5166 30.0401 28.2858 29.8443 31.2397 29.4888C35.5973 28.9645 36.8528 28.2651 37.1903 27.9888C37.4252 27.7965 37.7506 27.7586 38.0233 27.8918C38.2959 28.0252 38.4662 28.3052 38.4593 28.609ZM26.9467 40.1845H14.3062V41.1215H26.9467V40.1845ZM36.6024 29.9948C32.2833 31.5091 22.7425 31.5963 20.6265 31.5963C18.5104 31.5963 8.96965 31.5092 4.65042 29.9948C4.90203 30.6778 5.30393 31.4201 5.8324 32.1814C5.846 32.1962 5.85912 32.2117 5.87185 32.2278C5.98483 32.3715 6.22585 32.6123 6.5712 32.6123C6.87857 32.6123 7.17069 32.4181 7.37266 32.0794C7.5927 31.7103 8.06969 31.59 8.43836 31.81C8.80684 32.0303 8.9273 32.5081 8.70726 32.8771C8.37424 33.4356 7.89045 33.8386 7.34119 34.0345C7.90765 34.6398 8.54134 35.2371 9.23098 35.807C9.47375 35.5305 9.88613 35.4579 10.2129 35.6535C10.5814 35.8739 10.7017 36.3517 10.4815 36.7206C10.4754 36.7309 10.4692 36.7412 10.4629 36.7514C11.4621 37.4609 12.5493 38.102 13.6967 38.6282H27.5562C28.6329 38.1344 29.6565 37.5396 30.6042 36.8819C30.5684 36.8296 30.534 36.7758 30.501 36.7207C30.2808 36.3517 30.4009 35.874 30.7694 35.6535C31.1378 35.433 31.6151 35.5534 31.8352 35.9222C31.8402 35.9307 31.8453 35.9389 31.8505 35.9472C32.6103 35.3326 33.3052 34.6835 33.9204 34.0252C33.3819 33.826 32.908 33.4269 32.5801 32.8772C32.3601 32.5082 32.4805 32.0304 32.8489 31.8101C33.2175 31.5897 33.6947 31.7103 33.9146 32.0793C34.1167 32.418 34.4087 32.6123 34.716 32.6123C34.9698 32.6123 35.1662 32.4818 35.292 32.3634C35.884 31.5386 36.3308 30.7321 36.6024 29.9948ZM37.4316 11.7624C37.0621 11.5438 36.5855 11.6665 36.3672 12.0365L36.2685 12.2036C36.1952 12.3279 36.1603 12.4644 36.1603 12.5989C36.1604 12.8651 36.2969 13.1242 36.5423 13.2695C36.6663 13.3429 36.8025 13.3777 36.9369 13.3777C37.2028 13.3777 37.4617 13.2412 37.6067 12.9954L37.7054 12.8282C37.7787 12.7039 37.8136 12.5674 37.8136 12.4329C37.8134 12.1668 37.677 11.9076 37.4316 11.7624ZM35.3 13.2745C34.9299 13.0569 34.4536 13.1807 34.2361 13.5512L34.1379 13.7185C34.0652 13.8422 34.0306 13.9778 34.0306 14.1117C34.0305 14.3786 34.1677 14.6386 34.4142 14.7837C34.5378 14.8564 34.6735 14.891 34.8072 14.891C35.0737 14.891 35.3333 14.7537 35.478 14.5071L35.5762 14.3398C35.6489 14.2161 35.6835 14.0805 35.6835 13.9466C35.6836 13.6796 35.5463 13.4196 35.3 13.2745ZM35.5926 10.6769C35.2229 10.4583 34.7464 10.5813 34.5281 10.9513L34.4296 11.1184C34.3564 11.2427 34.3215 11.3792 34.3216 11.5137C34.3218 11.7798 34.4584 12.039 34.7038 12.1841C34.8278 12.2574 34.9638 12.2922 35.0982 12.2922C35.3641 12.2922 35.6232 12.1555 35.7681 11.9096L35.8666 11.7425C35.9399 11.6182 35.9747 11.4817 35.9746 11.3472C35.9745 11.0812 35.8379 10.822 35.5926 10.6769ZM41.9613 13.7035C41.0195 16.578 39.5691 19.7154 37.767 22.7762C36.9987 24.0811 36.1821 25.3453 35.3401 26.5341C35.1885 26.748 34.9489 26.8622 34.7055 26.8622C34.55 26.8622 34.3931 26.8156 34.2566 26.7187C33.9065 26.4701 33.8239 25.9843 34.0723 25.6338C34.8893 24.4805 35.6818 23.2531 36.4281 21.9859C37.8951 19.4942 39.1197 16.956 40.0118 14.5658C39.7992 14.6445 39.5794 14.7359 39.3536 14.8394C39.3288 14.8525 39.3033 14.8643 39.2771 14.8747C37.1251 15.8803 34.4207 17.9709 31.733 20.7562C31.6554 20.9812 31.5759 21.207 31.4943 21.4341C31.349 21.8385 30.9042 22.0487 30.4999 21.9029C30.0961 21.7574 29.8865 21.3117 30.0317 20.9073C30.1281 20.6391 30.2215 20.3723 30.3122 20.1068C30.3159 20.0949 30.32 20.0831 30.3243 20.0713C31.6393 16.211 32.3451 12.6652 32.3199 10.1767C32.3177 10.1468 32.3174 10.1169 32.3186 10.087C32.3177 10.0373 32.3166 9.98798 32.3151 9.93915C30.7768 11.8517 29.2582 14.0648 27.8677 16.4263C27.4505 17.1347 27.0452 17.8563 26.6631 18.5712C26.4606 18.9501 25.9895 19.0928 25.6111 18.8899C25.2327 18.6871 25.0901 18.2155 25.2927 17.8367C25.6849 17.1031 26.1008 16.3627 26.5287 15.6359C28.3069 12.616 30.2937 9.82651 32.2743 7.56913C32.4644 7.35261 32.7586 7.25894 33.0386 7.32586C33.3186 7.39278 33.5388 7.6092 33.6108 7.88836C33.659 8.07521 33.7002 8.27218 33.7349 8.47897C36.0038 6.55628 37.8653 5.94495 39.1648 6.7121C40.8368 7.69898 40.708 10.384 40.1282 12.895C40.4797 12.7942 40.8153 12.7247 41.1333 12.6878C41.3964 12.6571 41.6573 12.7631 41.8249 12.9687C41.9925 13.1744 42.0439 13.4513 41.9613 13.7035ZM38.3755 8.05284C37.7968 7.71123 36.2771 8.14748 33.8704 10.452C33.8512 12.4357 33.448 14.911 32.6957 17.6533C34.6926 15.842 36.6304 14.4556 38.3388 13.6078C39.2751 10.3121 39.0417 8.44619 38.3755 8.05284ZM37.6133 9.34737C37.2434 9.1292 36.7671 9.25254 36.5492 9.62274L36.4507 9.78994C36.3776 9.91434 36.3428 10.0508 36.343 10.1853C36.3434 10.4515 36.4803 10.7105 36.7258 10.8554C36.8496 10.9285 36.9854 10.9632 37.1195 10.9632C37.3857 10.9632 37.645 10.8262 37.7898 10.58L37.8882 10.4128C37.9614 10.2884 37.9962 10.152 37.996 10.0174C37.9957 9.75132 37.8589 9.4923 37.6133 9.34737ZM13.8635 33.4855C14.0835 33.1165 13.9632 32.6388 13.5947 32.4184C13.2263 32.198 12.749 32.3186 12.529 32.6876C12.3269 33.0263 12.0349 33.2205 11.7275 33.2205C11.4203 33.2205 11.1283 33.0263 10.9264 32.6876C10.7063 32.3186 10.2294 32.1981 9.86068 32.4182C9.4922 32.6386 9.37174 33.1163 9.59178 33.4853C10.0739 34.2939 10.8724 34.7767 11.7275 34.7767C12.5827 34.7768 13.3812 34.2941 13.8635 33.4855ZM19.7059 33.4856C19.926 33.1166 19.8057 32.6389 19.4372 32.4184C19.0688 32.1982 18.5915 32.3186 18.3714 32.6875C18.1692 33.0262 17.8772 33.2205 17.5699 33.2205C17.2627 33.2205 16.9706 33.0263 16.7686 32.6876C16.5485 32.3186 16.0715 32.1981 15.7029 32.4184C15.3344 32.6388 15.214 33.1165 15.4341 33.4855C15.9164 34.2941 16.7149 34.7768 17.5699 34.7768C18.425 34.7768 19.2235 34.2941 19.7059 33.4856ZM29.2546 34.7768C30.1098 34.7768 30.9083 34.2941 31.3906 33.4855C31.6106 33.1165 31.4903 32.6388 31.1218 32.4184C30.7533 32.198 30.2762 32.3186 30.0561 32.6876C29.854 33.0263 29.562 33.2205 29.2546 33.2205C28.9473 33.2205 28.6553 33.0263 28.4533 32.6876C28.2331 32.3186 27.756 32.1981 27.3876 32.4184C27.0191 32.6388 26.8987 33.1165 27.1188 33.4855C27.6011 34.2941 28.3995 34.7768 29.2546 34.7768ZM16.2857 35.6534C15.9172 35.4331 15.4401 35.5535 15.22 35.9224C15.0178 36.2611 14.7257 36.4554 14.4184 36.4554C14.1112 36.4554 13.8192 36.2611 13.6169 35.9224C13.3968 35.5535 12.9196 35.433 12.5513 35.6534C12.1828 35.8738 12.0625 36.3516 12.2825 36.7205C12.765 37.5291 13.5634 38.0117 14.4183 38.0117C15.2734 38.0117 16.0718 37.529 16.5543 36.7205C16.7745 36.3515 16.6541 35.8737 16.2857 35.6534ZM19.6898 35.9224C19.4697 35.5535 18.9926 35.433 18.6241 35.6533C18.2556 35.8736 18.1352 36.3514 18.3553 36.7203C18.8376 37.5289 19.636 38.0116 20.4911 38.0116C21.3464 38.0116 22.1449 37.5289 22.6271 36.7203C22.8471 36.3513 22.7268 35.8736 22.3583 35.6532C21.9898 35.4332 21.5126 35.5535 21.2926 35.9224C21.0906 36.2611 20.7985 36.4553 20.4911 36.4553C20.1839 36.4554 19.8917 36.2612 19.6898 35.9224ZM23.4122 34.7768C24.2674 34.7768 25.066 34.2941 25.5483 33.4855C25.7683 33.1165 25.648 32.6388 25.2795 32.4184C24.911 32.198 24.4339 32.3186 24.2138 32.6876C24.0117 33.0263 23.7196 33.2205 23.4123 33.2205C23.1051 33.2205 22.813 33.0263 22.611 32.6876C22.3909 32.3186 21.9138 32.1981 21.5453 32.4184C21.1768 32.6388 21.0564 33.1165 21.2765 33.4855C21.7587 34.2941 22.5571 34.7768 23.4122 34.7768ZM24.6967 35.6534C24.3282 35.8737 24.2079 36.3515 24.4279 36.7204C24.9102 37.529 25.7087 38.0117 26.5638 38.0117C27.4188 38.0117 28.2173 37.529 28.6997 36.7205C28.9199 36.3516 28.7995 35.8738 28.431 35.6534C28.0625 35.4331 27.5854 35.5535 27.3653 35.9224C27.1632 36.2611 26.871 36.4554 26.5638 36.4554C26.2565 36.4554 25.9645 36.2612 25.7624 35.9225C25.5425 35.5535 25.0654 35.433 24.6967 35.6534Z" fill="white"/>
</g>
<defs>
<clipPath id="clip0_1568_13119">
<rect width="42" height="42" fill="white" transform="translate(0 0.677734)"/>
</clipPath>
</defs>
</svg>
