<svg width="46" height="42" viewBox="0 0 46 42" fill="none" xmlns="http://www.w3.org/2000/svg">
<path fill-rule="evenodd" clip-rule="evenodd" d="M6.84996 25.6836L24.5803 10.2562C26.3577 8.71013 27.8342 6.90539 28.3811 5.21822C28.721 4.16398 28.6546 3.28415 28.1448 2.84326C27.7014 2.45919 26.9241 2.37297 25.9046 2.70021C24.221 3.23907 22.4163 4.74008 20.8676 6.53304L5.49268 24.3217L6.84996 25.6836ZM41.5137 20.2047V23.2616V23.2596C41.5137 23.4693 41.3985 23.6613 41.213 23.7574C41.0294 23.8534 40.8067 23.8377 40.6368 23.7162L39.7189 23.144L38.7697 23.7339H38.7677C38.5978 23.8397 38.383 23.8456 38.2072 23.7456C38.0314 23.6476 37.922 23.4615 37.922 23.2597V20.2048H35.0509V29.5734H44.3849V20.2048L41.5137 20.2047ZM39.0314 20.2047H40.4005V22.2563C40.2052 22.0917 39.9728 21.982 39.7227 21.933C39.5997 21.931 39.4806 21.9702 39.3829 22.0447L39.0333 22.2622V20.2047L39.0314 20.2047ZM34.4884 19.0877L44.9434 19.0858C45.0898 19.0858 45.2324 19.1465 45.3359 19.2504C45.4414 19.3542 45.5 19.4973 45.5 19.6462V40.6193C45.5 40.9289 45.25 41.1777 44.9434 41.1777H24.0375C23.7308 41.1777 23.4808 40.9289 23.4808 40.6193V30.136C23.4808 29.9871 23.5394 29.844 23.6449 29.7402C23.7484 29.6344 23.891 29.5756 24.0375 29.5756H33.9319L33.9339 19.6466C33.9339 19.337 34.1839 19.0862 34.4905 19.0862L34.4884 19.0877ZM31.0627 30.6922V33.7491V33.7471C31.0627 33.9568 30.9455 34.1469 30.7619 34.2429C30.5763 34.3389 30.3537 34.3252 30.1838 34.2037L29.2658 33.6315L28.3147 34.2233C28.1448 34.3291 27.9299 34.333 27.7541 34.2351C27.5784 34.1371 27.469 33.9509 27.469 33.7491V30.6922H24.596V40.0608H33.9339V30.6922L31.0627 30.6922ZM28.5803 30.6922V32.7497L28.9299 32.5322V32.5302C29.0275 32.4577 29.1467 32.4185 29.2697 32.4205C29.5197 32.4675 29.7521 32.5792 29.9475 32.7438V30.6922L28.5803 30.6922ZM41.5137 30.6922V33.7491V33.7471C41.5137 33.9568 41.3984 34.1469 41.2129 34.2429C41.0293 34.3389 40.8067 34.3252 40.6368 34.2037L39.7188 33.6315L38.7677 34.2233C38.5958 34.3291 38.381 34.333 38.2052 34.2351C38.0313 34.1371 37.922 33.9509 37.922 33.7491V30.6922H35.0509V40.0608H44.3848V30.6922L41.5137 30.6922ZM39.0313 30.6922V32.7497L39.3809 32.5322L39.3829 32.5302C39.4805 32.4577 39.5997 32.4185 39.7227 32.4205C39.9707 32.4675 40.2051 32.5792 40.4004 32.7438V30.6922L39.0313 30.6922ZM9.28749 9.70157C9.50624 9.48407 9.85779 9.48407 10.0765 9.70157C10.2933 9.91908 10.2933 10.2737 10.0746 10.4913L7.61365 12.9603V12.9622C7.39685 13.1797 7.04335 13.1797 6.82655 12.9622C6.6078 12.7428 6.60976 12.3901 6.82655 12.1706L9.28749 9.70157ZM7.11955 8.44161C7.33635 8.2241 7.68985 8.2241 7.90665 8.44161C8.1254 8.66107 8.1254 9.01378 7.90665 9.23324L4.53362 12.6174C4.31487 12.8349 3.96332 12.8368 3.74458 12.6174C3.52778 12.3998 3.52778 12.0452 3.74458 11.8277L7.11955 8.44161ZM4.94967 7.18555C5.16842 6.96608 5.51996 6.96608 5.73871 7.18555C5.95551 7.40306 5.95551 7.75772 5.73871 7.97523L1.44969 12.2744C1.2329 12.4919 0.879394 12.4919 0.662595 12.2744C0.445802 12.055 0.445802 11.7023 0.662595 11.4828L4.94967 7.18555ZM20.6331 21.0845C20.8518 20.867 21.2034 20.867 21.4221 21.0845C21.6389 21.3039 21.6389 21.6566 21.4221 21.8761L18.9612 24.3451H18.9592C18.7424 24.5626 18.3889 24.5626 18.1721 24.3451C17.9553 24.1257 17.9534 23.773 18.1721 23.5535L20.6331 21.0845ZM21.8889 23.2595C22.1057 23.042 22.4592 23.042 22.676 23.2595C22.8948 23.479 22.8948 23.8317 22.676 24.0512L19.301 27.4353C19.0823 27.6547 18.7307 27.6547 18.512 27.4353C18.2952 27.2178 18.2952 26.8631 18.512 26.6456L21.885 23.2615L21.8889 23.2595ZM23.1448 25.4366C23.3615 25.2171 23.715 25.2171 23.9318 25.4366C24.1486 25.6541 24.1506 26.0068 23.9318 26.2262L19.6448 30.5274C19.428 30.7449 19.0745 30.7449 18.8577 30.5274C18.6389 30.3099 18.6389 29.9552 18.8577 29.7377L23.1448 25.4366ZM29.7053 24.8271L28.8967 25.6403L20.3967 15.3703L24.5432 11.7628L29.7053 24.8271ZM27.6603 16.6303L27.5588 16.3697L28.0705 15.8563V15.8583C28.1212 15.8132 28.1974 15.8152 28.2462 15.8622C28.2951 15.9112 28.297 15.9896 28.2521 16.0405L27.6623 16.6323L27.6603 16.6303ZM27.1095 15.2391H27.1115C27.3615 14.9099 27.7482 14.712 28.1603 14.7041C28.6271 14.7041 29.0529 14.9667 29.2638 15.3802C29.4767 15.7956 29.4415 16.2953 29.1701 16.6754C29.4474 16.8968 29.6173 17.2241 29.6369 17.5788C29.6583 17.9334 29.5275 18.2803 29.2775 18.5311L28.6583 19.1523L30.8536 24.7094C30.963 24.925 30.922 25.1875 30.7521 25.358L29.256 26.8591H29.254C29.1427 26.9707 28.9923 27.0276 28.8361 27.0217C28.6798 27.0139 28.5353 26.9413 28.4357 26.8218L19.5587 16.1013L10.3828 24.0844L11.8086 28.7931V28.7951C11.8926 29.0028 11.8437 29.2418 11.6855 29.4005L10.7265 30.3607C10.5097 30.5782 10.1562 30.5782 9.93944 30.3607L0.827998 21.2214C0.60925 21.0019 0.60925 20.6492 0.827998 20.4297L1.78699 19.4676C1.93152 19.3226 2.14441 19.2697 2.33974 19.3285L7.08581 20.7785L15.0448 11.5689L4.39433 2.69991C4.25761 2.60586 4.16972 2.45497 4.15409 2.29037C4.13847 2.12381 4.19901 1.96117 4.3162 1.8436L5.81229 0.342595V0.340635C5.96854 0.183872 6.20487 0.134882 6.40994 0.217186L11.9999 2.44126L12.6171 1.81616C12.8691 1.5673 13.2128 1.43601 13.5663 1.45561C13.9198 1.47716 14.2479 1.64764 14.4667 1.92393C14.8456 1.65352 15.3436 1.61825 15.7577 1.82988C16.1717 2.04347 16.4315 2.47062 16.4315 2.937C16.4237 3.35242 16.2284 3.74042 15.8983 3.99124L20.1366 5.68036C21.8417 3.73259 23.7362 2.22963 25.5701 1.64176C30.0739 0.197592 32.0445 5.16302 25.4314 10.9948L27.1111 15.2451L27.1095 15.2391ZM28.3146 17.5533L28.3166 17.5552C28.3693 17.5102 28.4474 17.5141 28.4943 17.565C28.5412 17.616 28.5392 17.6944 28.4904 17.7434L28.2111 18.0236L28.1115 17.7649L28.3205 17.5552L28.3146 17.5533ZM13.3712 4.18359L19.3672 6.56833L15.7715 10.7265L5.53506 2.1986L6.34366 1.38735L13.3711 4.18163L13.3712 4.18359ZM13.3849 2.9922L13.1271 2.8903L13.4064 2.61009C13.4571 2.5611 13.5353 2.5611 13.5861 2.61009C13.7091 2.73354 13.5099 2.86874 13.3868 2.99415L13.3849 2.9922ZM14.7716 3.5448L14.5118 3.44291L15.1036 2.84917C15.1544 2.8041 15.2306 2.80606 15.2794 2.85505C15.3282 2.90208 15.3302 2.98046 15.2833 3.0314L14.7716 3.5448ZM4.70514 23.5301L2.00986 20.826L2.33994 20.4948L6.28911 21.698L4.70514 23.5301ZM9.46486 24.8841L10.6641 28.8443L10.334 29.1755L7.63869 26.4714L9.46486 24.8841Z" fill="white"/>
</svg>
