<svg xmlns="http://www.w3.org/2000/svg" xmlns:xlink="http://www.w3.org/1999/xlink" viewBox="0 0 2000 2000" width="2000" height="2000" preserveAspectRatio="xMidYMid meet" style="width: 100%; height: 100%; transform: translate3d(0px, 0px, 0px); content-visibility: visible;"><defs><clipPath id="__lottie_element_2"><rect width="2000" height="2000" x="0" y="0"></rect></clipPath></defs><g clip-path="url(#__lottie_element_2)"><g transform="matrix(1,0,0,1,129.88800048828125,328.5709228515625)" opacity="1" style="display: block;"><g opacity="1" transform="matrix(1,0,0,1,870.1119995117188,695.5770263671875)"><path fill="#0F938F" fill-opacity="1" d=" M695.3259887695312,0 C695.3259887695312,-384.01800537109375 384.01800537109375,-695.3270263671875 0,-695.3270263671875 C-384.01800537109375,-695.3270263671875 -695.3259887695312,-384.01800537109375 -695.3259887695312,0 C-695.3259887695312,384.01800537109375 -384.01800537109375,695.3270263671875 0,695.3270263671875 C384.01800537109375,695.3270263671875 695.3259887695312,384.01800537109375 695.3259887695312,0z"></path></g><g opacity="1" transform="matrix(1,0,0,1,501.73699951171875,1029.751953125)"><path fill="#FFB863" fill-opacity="1" d=" M304.79998779296875,-53.994998931884766 C304.79998779296875,-53.994998931884766 -304.8009948730469,-53.994998931884766 -304.8009948730469,-53.994998931884766 C-352.0169982910156,-53.994998931884766 -390.2929992675781,-15.718999862670898 -390.2929992675781,31.496999740600586 C-390.2929992675781,31.496999740600586 -390.2929992675781,53.994998931884766 -390.2929992675781,53.994998931884766 C-390.2929992675781,53.994998931884766 390.2929992675781,53.994998931884766 390.2929992675781,53.994998931884766 C390.2929992675781,53.994998931884766 390.2929992675781,31.496999740600586 390.2929992675781,31.496999740600586 C390.2929992675781,-15.718999862670898 352.0159912109375,-53.994998931884766 304.79998779296875,-53.994998931884766z"></path></g><g opacity="1" transform="matrix(1,0,0,1,501.73699951171875,956.2579956054688)"><path fill="#FFB863" fill-opacity="1" d=" M305.2239990234375,-19.499000549316406 C305.2239990234375,-19.499000549316406 -305.2239990234375,-19.499000549316406 -305.2239990234375,-19.499000549316406 C-305.2239990234375,-19.499000549316406 -305.2239990234375,19.49799919128418 -305.2239990234375,19.49799919128418 C-305.2239990234375,19.49799919128418 305.2239990234375,19.49799919128418 305.2239990234375,19.49799919128418 C305.2239990234375,19.49799919128418 305.2239990234375,-19.499000549316406 305.2239990234375,-19.499000549316406z"></path></g><g opacity="1" transform="matrix(1,0,0,1,501.73699951171875,966.0070190429688)"><path fill="#FF9749" fill-opacity="1" d=" M305.2239990234375,-9.75 C305.2239990234375,-9.75 -305.2239990234375,-9.75 -305.2239990234375,-9.75 C-305.2239990234375,-9.75 -305.2239990234375,9.75 -305.2239990234375,9.75 C-305.2239990234375,9.75 305.2239990234375,9.75 305.2239990234375,9.75 C305.2239990234375,9.75 305.2239990234375,-9.75 305.2239990234375,-9.75z"></path></g><g opacity="1" transform="matrix(1,0,0,1,870.1110229492188,1083.7459716796875)"><path fill="#0A6B67" fill-opacity="1" d=" M869.8610229492188,4.585999965667725 C869.8610229492188,4.585999965667725 -869.8610229492188,4.585999965667725 -869.8610229492188,4.585999965667725 C-869.8610229492188,4.585999965667725 -869.8610229492188,-4.585999965667725 -869.8610229492188,-4.585999965667725 C-869.8610229492188,-4.585999965667725 869.8610229492188,-4.585999965667725 869.8610229492188,-4.585999965667725 C869.8610229492188,-4.585999965667725 869.8610229492188,4.585999965667725 869.8610229492188,4.585999965667725z"></path></g></g><g transform="matrix(0.9721245169639587,0.23446528613567352,-0.23446528613567352,0.9721245169639587,661.630126953125,290.03466796875)" opacity="1" style="display: block;"><g opacity="1" transform="matrix(1,0,0,1,267.739990234375,324.7149963378906)"><path fill="#FFB863" fill-opacity="1" d=" M-101.17400360107422,-205.57400512695312 C-101.17400360107422,-205.57400512695312 -217.58799743652344,71.77799987792969 -217.58799743652344,71.77799987792969 C-221.02699279785156,79.97200012207031 -217.17300415039062,89.4010009765625 -208.97999572753906,92.83999633789062 C-208.97999572753906,92.83999633789062 80.11199951171875,214.18099975585938 80.11199951171875,214.18099975585938 C88.30500030517578,217.62100219726562 97.73500061035156,213.76600646972656 101.17400360107422,205.572998046875 C101.17400360107422,205.572998046875 217.58799743652344,-71.77999877929688 217.58799743652344,-71.77999877929688 C221.02699279785156,-79.97200012207031 217.17300415039062,-89.4020004272461 208.97999572753906,-92.84100341796875 C208.97999572753906,-92.84100341796875 -80.11199951171875,-214.1820068359375 -80.11199951171875,-214.1820068359375 C-88.30500030517578,-217.62100219726562 -97.73500061035156,-213.76699829101562 -101.17400360107422,-205.57400512695312z"></path></g><g opacity="1" transform="matrix(1,0,0,1,337.2950134277344,159.00100708007812)"><path fill="#FFFFFF" fill-opacity="1" d=" M114.19300079345703,33.57899856567383 C114.19300079345703,33.57899856567383 103.94999694824219,57.981998443603516 103.94999694824219,57.981998443603516 C103.94999694824219,57.981998443603516 -114.19300079345703,-33.57899856567383 -114.19300079345703,-33.57899856567383 C-114.19300079345703,-33.57899856567383 -103.94999694824219,-57.981998443603516 -103.94999694824219,-57.981998443603516 C-103.94999694824219,-57.981998443603516 114.19300079345703,33.57899856567383 114.19300079345703,33.57899856567383z"></path></g><g opacity="1" transform="matrix(1,0,0,1,198.18499755859375,490.427001953125)"><path fill="#FFFFFF" fill-opacity="1" d=" M114.19300079345703,33.57899856567383 C114.19300079345703,33.57899856567383 103.9489974975586,57.981998443603516 103.9489974975586,57.981998443603516 C103.9489974975586,57.981998443603516 -114.19300079345703,-33.577999114990234 -114.19300079345703,-33.577999114990234 C-114.19300079345703,-33.577999114990234 -103.95099639892578,-57.981998443603516 -103.95099639892578,-57.981998443603516 C-103.95099639892578,-57.981998443603516 114.19300079345703,33.57899856567383 114.19300079345703,33.57899856567383z"></path></g><g opacity="1" transform="matrix(1,0,0,1,360.7879943847656,105.31700134277344)"><path fill="#FFB863" fill-opacity="1" d=" M-144.32000732421875,-105.06800079345703 C-144.32000732421875,-105.06800079345703 -170.35499572753906,-43.03900146484375 -170.35499572753906,-43.03900146484375 C-174.4409942626953,-33.30500030517578 -169.86199951171875,-22.10300064086914 -160.1280059814453,-18.017000198364258 C-160.1280059814453,-18.017000198364258 123.38400268554688,100.98200225830078 123.38400268554688,100.98200225830078 C133.1179962158203,105.06800079345703 144.3209991455078,100.48899841308594 148.40699768066406,90.75499725341797 C148.40699768066406,90.75499725341797 174.4409942626953,28.72800064086914 174.4409942626953,28.72800064086914 C174.4409942626953,28.72800064086914 -144.32000732421875,-105.06800079345703 -144.32000732421875,-105.06800079345703z"></path></g><g opacity="1" transform="matrix(1,0,0,1,174.66600036621094,544.135009765625)"><path fill="#FFB863" fill-opacity="1" d=" M144.34500122070312,105.04299926757812 C144.34500122070312,105.04299926757812 170.27000427246094,43.2760009765625 170.27000427246094,43.2760009765625 C174.41600036621094,33.39799880981445 169.77000427246094,22.02899932861328 159.89199829101562,17.884000778198242 C159.89199829101562,17.884000778198242 -123.0979995727539,-100.89600372314453 -123.0979995727539,-100.89600372314453 C-132.9759979248047,-105.04299926757812 -144.34500122070312,-100.39600372314453 -148.49099731445312,-90.51899719238281 C-148.49099731445312,-90.51899719238281 -174.41600036621094,-28.75200080871582 -174.41600036621094,-28.75200080871582 C-174.41600036621094,-28.75200080871582 144.34500122070312,105.04299926757812 144.34500122070312,105.04299926757812z"></path></g><g opacity="1" transform="matrix(1,0,0,1,497.7049865722656,421.2380065917969)"><path fill="#FFB863" fill-opacity="1" d=" M-163.7949981689453,-109.25399780273438 C-163.7949981689453,-109.25399780273438 -192.7030029296875,-40.37900161743164 -192.7030029296875,-40.37900161743164 C-192.7030029296875,-40.37900161743164 163.79400634765625,109.25399780273438 163.79400634765625,109.25399780273438 C163.79400634765625,109.25399780273438 192.7030029296875,40.38100051879883 192.7030029296875,40.38100051879883 C192.7030029296875,40.38100051879883 -163.7949981689453,-109.25399780273438 -163.7949981689453,-109.25399780273438z"></path></g><g opacity="1" transform="matrix(1,0,0,1,933.7860107421875,604.2760009765625)"><path fill="#FF9749" fill-opacity="1" d=" M-417.9540100097656,-175.42999267578125 C-417.9540100097656,-175.42999267578125 -417.9540100097656,-175.42999267578125 -417.9540100097656,-175.42999267578125 C-435.3009948730469,-134.1009979248047 -415.8599853515625,-86.53399658203125 -374.531005859375,-69.18800354003906 C-374.531005859375,-69.18800354003906 311.71099853515625,218.8509979248047 311.71099853515625,218.8509979248047 C353.0400085449219,236.19900512695312 400.6080017089844,216.7570037841797 417.9540100097656,175.42799377441406 C435.302001953125,134.0989990234375 415.8590087890625,86.53299713134766 374.5299987792969,69.18599700927734 C374.5299987792969,69.18599700927734 -311.7130126953125,-218.8520050048828 -311.7130126953125,-218.8520050048828 C-353.0409851074219,-236.19900512695312 -400.60699462890625,-216.75900268554688 -417.9540100097656,-175.42999267578125z"></path></g><g opacity="1" transform="matrix(1,0,0,1,445.2919921875,399.239013671875)"><path fill="#FF9749" fill-opacity="1" d=" M3.7179999351501465,42.06399917602539 C3.7179999351501465,42.06399917602539 32.625999450683594,-26.80900001525879 32.625999450683594,-26.80900001525879 C32.625999450683594,-26.80900001525879 -3.7179999351501465,-42.06399917602539 -3.7179999351501465,-42.06399917602539 C-3.7179999351501465,-42.06399917602539 -32.625999450683594,26.80900001525879 -32.625999450683594,26.80900001525879 C-32.625999450683594,26.80900001525879 3.7179999351501465,42.06399917602539 3.7179999351501465,42.06399917602539z"></path></g></g><g transform="matrix(1,0,0,1,228.0169677734375,567.2420043945312)" opacity="1" style="display: none;"><g opacity="1" transform="matrix(1,0,0,1,28.500999450683594,202.8560028076172)"><path fill="rgb(0,0,0)" fill-opacity="1" d=" M28.250999450683594,1.375 C28.250999450683594,1.375 -28.250999450683594,1.375 -28.250999450683594,1.375 C-28.250999450683594,1.375 -28.250999450683594,-1.375 -28.250999450683594,-1.375 C-28.250999450683594,-1.375 28.250999450683594,-1.375 28.250999450683594,-1.375 C28.250999450683594,-1.375 28.250999450683594,1.375 28.250999450683594,1.375z"></path></g><g opacity="1" transform="matrix(1,0,0,1,28.500999450683594,202.8560028076172)"><path fill="rgb(0,0,0)" fill-opacity="1" d=" M1.375,28.250999450683594 C1.375,28.250999450683594 -1.375,28.250999450683594 -1.375,28.250999450683594 C-1.375,28.250999450683594 -1.375,-28.250999450683594 -1.375,-28.250999450683594 C-1.375,-28.250999450683594 1.375,-28.250999450683594 1.375,-28.250999450683594 C1.375,-28.250999450683594 1.375,28.250999450683594 1.375,28.250999450683594z"></path></g><g opacity="1" transform="matrix(1,0,0,1,1052.5,293.60101318359375)"><path fill="rgb(0,0,0)" fill-opacity="1" d=" M15.602999687194824,1.375 C15.602999687194824,1.375 -15.60200023651123,1.375 -15.60200023651123,1.375 C-15.60200023651123,1.375 -15.60200023651123,-1.375 -15.60200023651123,-1.375 C-15.60200023651123,-1.375 15.602999687194824,-1.375 15.602999687194824,-1.375 C15.602999687194824,-1.375 15.602999687194824,1.375 15.602999687194824,1.375z"></path></g><g opacity="1" transform="matrix(1,0,0,1,1052.501953125,293.60101318359375)"><path fill="rgb(0,0,0)" fill-opacity="1" d=" M1.375,15.602999687194824 C1.375,15.602999687194824 -1.375,15.602999687194824 -1.375,15.602999687194824 C-1.375,15.602999687194824 -1.375,-15.602999687194824 -1.375,-15.602999687194824 C-1.375,-15.602999687194824 1.375,-15.602999687194824 1.375,-15.602999687194824 C1.375,-15.602999687194824 1.375,15.602999687194824 1.375,15.602999687194824z"></path></g><g opacity="1" transform="matrix(1,0,0,1,1308.5,309.2040100097656)"><path fill="rgb(0,0,0)" fill-opacity="1" d=" M56.560001373291016,1.375 C56.560001373291016,1.375 -56.560001373291016,1.375 -56.560001373291016,1.375 C-56.560001373291016,1.375 -56.560001373291016,-1.375 -56.560001373291016,-1.375 C-56.560001373291016,-1.375 56.560001373291016,-1.375 56.560001373291016,-1.375 C56.560001373291016,-1.375 56.560001373291016,1.375 56.560001373291016,1.375z"></path></g><g opacity="1" transform="matrix(1,0,0,1,1308.501953125,309.2040100097656)"><path fill="rgb(0,0,0)" fill-opacity="1" d=" M1.375,56.560001373291016 C1.375,56.560001373291016 -1.375,56.560001373291016 -1.375,56.560001373291016 C-1.375,56.560001373291016 -1.375,-56.560001373291016 -1.375,-56.560001373291016 C-1.375,-56.560001373291016 1.375,-56.560001373291016 1.375,-56.560001373291016 C1.375,-56.560001373291016 1.375,56.560001373291016 1.375,56.560001373291016z"></path></g><g opacity="1" transform="matrix(1,0,0,1,756.3800048828125,15.854000091552734)"><path fill="rgb(0,0,0)" fill-opacity="1" d=" M15.602999687194824,1.375 C15.602999687194824,1.375 -15.602999687194824,1.375 -15.602999687194824,1.375 C-15.602999687194824,1.375 -15.602999687194824,-1.375 -15.602999687194824,-1.375 C-15.602999687194824,-1.375 15.602999687194824,-1.375 15.602999687194824,-1.375 C15.602999687194824,-1.375 15.602999687194824,1.375 15.602999687194824,1.375z"></path></g><g opacity="1" transform="matrix(1,0,0,1,756.3800048828125,15.852999687194824)"><path fill="rgb(0,0,0)" fill-opacity="1" d=" M1.375,15.602999687194824 C1.375,15.602999687194824 -1.375,15.602999687194824 -1.375,15.602999687194824 C-1.375,15.602999687194824 -1.375,-15.602999687194824 -1.375,-15.602999687194824 C-1.375,-15.602999687194824 1.375,-15.602999687194824 1.375,-15.602999687194824 C1.375,-15.602999687194824 1.375,15.602999687194824 1.375,15.602999687194824z"></path></g><g opacity="1" transform="matrix(1,0,0,1,264.0429992675781,119.6259994506836)"><path fill="rgb(0,0,0)" fill-opacity="1" d=" M15.602999687194824,1.375 C15.602999687194824,1.375 -15.602999687194824,1.375 -15.602999687194824,1.375 C-15.602999687194824,1.375 -15.602999687194824,-1.375 -15.602999687194824,-1.375 C-15.602999687194824,-1.375 15.602999687194824,-1.375 15.602999687194824,-1.375 C15.602999687194824,-1.375 15.602999687194824,1.375 15.602999687194824,1.375z"></path></g><g opacity="1" transform="matrix(1,0,0,1,264.04400634765625,119.625)"><path fill="rgb(0,0,0)" fill-opacity="1" d=" M1.375,15.602999687194824 C1.375,15.602999687194824 -1.375,15.602999687194824 -1.375,15.602999687194824 C-1.375,15.602999687194824 -1.375,-15.602999687194824 -1.375,-15.602999687194824 C-1.375,-15.602999687194824 1.375,-15.602999687194824 1.375,-15.602999687194824 C1.375,-15.602999687194824 1.375,15.602999687194824 1.375,15.602999687194824z"></path></g></g></g></svg>