<svg width="41" height="31" viewBox="0 0 41 31" fill="none" xmlns="http://www.w3.org/2000/svg">
<path d="M7.2085 25.7083C7.2085 26.7913 7.6387 27.8299 8.40448 28.5957C9.17025 29.3615 10.2089 29.7917 11.2918 29.7917C12.3748 29.7917 13.4134 29.3615 14.1792 28.5957C14.945 27.8299 15.3752 26.7913 15.3752 25.7083C15.3752 24.6254 14.945 23.5868 14.1792 22.821C13.4134 22.0552 12.3748 21.625 11.2918 21.625C10.2089 21.625 9.17025 22.0552 8.40448 22.821C7.6387 23.5868 7.2085 24.6254 7.2085 25.7083ZM27.6252 25.7083C27.6252 26.7913 28.0554 27.8299 28.8211 28.5957C29.5869 29.3615 30.6255 29.7917 31.7085 29.7917C32.7915 29.7917 33.8301 29.3615 34.5958 28.5957C35.3616 27.8299 35.7918 26.7913 35.7918 25.7083C35.7918 24.6254 35.3616 23.5868 34.5958 22.821C33.8301 22.0552 32.7915 21.625 31.7085 21.625C30.6255 21.625 29.5869 22.0552 28.8211 22.821C28.0554 23.5868 27.6252 24.6254 27.6252 25.7083Z" stroke="white" stroke-width="2" stroke-linecap="round" stroke-linejoin="round"/>
<path d="M7.2085 25.708H3.12516V17.5413M1.0835 1.20801H23.5418V25.708M15.3752 25.708H27.6252M35.7918 25.708H39.8752V13.458M39.8752 13.458H23.5418M39.8752 13.458L33.7502 3.24967H23.5418M3.12516 9.37467H11.2918" stroke="white" stroke-width="2" stroke-linecap="round" stroke-linejoin="round"/>
</svg>
